<?xml version="1.0" encoding="utf-8"?>
<!-- Generator: Adobe Illustrator 25.4.1, SVG Export Plug-In . SVG Version: 6.00 Build 0)  -->
<svg version="1.1" id="Capa_1" xmlns="http://www.w3.org/2000/svg" xmlns:xlink="http://www.w3.org/1999/xlink" x="0px" y="0px"
	 viewBox="0 0 350 585" style="enable-background:new 0 0 350 585;" xml:space="preserve">
<style type="text/css">
	.st0{fill:#FF6633;}
	.st1{opacity:0.5;fill:#FF6633;}
</style>
<g>
	<g>
		<g>
			<g>
				<path class="st0" d="M175,0C78.4,0,0,78.4,0,174.9s78.4,174.9,175,174.9s175-78.4,175-174.9S271.6,0,175,0z M291.7,291.6
					c-31.2,31.1-72.6,48.3-116.7,48.3s-85.5-17.2-116.7-48.3C27.2,260.4,10,219,10,174.9S27.2,89.5,58.3,58.3
					C89.5,27.2,130.9,10,175,10s85.5,17.2,116.7,48.3S340,130.8,340,174.9S322.8,260.4,291.7,291.6z"/>
			</g>
		</g>
		<path class="st1" d="M345.5,208.2l-11,9.1c-7.4,27.8-22,53.3-42.8,74.2c-28.2,28.1-64.8,44.8-104.1,47.8L175,349.8l-12.6-10.5
			c-39.3-3-75.9-19.7-104.1-47.8c-20.8-20.9-35.4-46.4-42.8-74.2l-11-9.1l162.2,360.3c-1.3,1.7-2,3.8-2,6.1
			c0,5.7,4.6,10.3,10.3,10.3s10.3-4.6,10.3-10.3c0-2.3-0.8-4.4-2-6.1L345.5,208.2z"/>
	</g>
</g>
<path class="st0" d="M278,138.8c4.1-15,5.5-29.8,4.3-44c-0.2-2.5-0.7-5.2-1.5-8c-2.1-7.6-6.6-12.5-13.4-14.4l-0.5-0.1h-5.5l-0.5,0.1
	c-6.4,1.6-11.3,5.4-15.7,9.2c-5.7,5-11.4,10-17.1,14.9c-9.9,8.7-20.2,17.6-30.3,26.5c-2.8,2.5-4.8,5.5-6.8,8.5l-0.3,0.5
	c-1.2,1.8-2.2,3.8-3.1,5.6c-6.6-0.9-12.2,1.9-16.7,8.3c-1.6,2.2-3.3,4.4-4.9,6.6c-2.1,2.7-4.2,5.5-6.2,8.4c-1.8,2.6-3.2,5.5-4.6,8.2
	c-0.2,0.4-0.4,0.7-0.6,1.1c-3.6-0.1-6.7,2.1-8.9,3.8c-10.1,7.6-16.8,14.5-21.8,22.3c-0.6,1-1.2,2-1.8,3c-0.5-0.1-0.9-0.1-1.4-0.1
	c-4.4-0.1-8.1,1.8-10,5.3c-0.7,1.3-1.4,2.5-2.2,3.8c-3,5.3-6.2,10.7-7.1,17.3c-0.8,5.9-1.2,12.3-1.2,20.1c0,2.4,0.7,4.5,1.4,6.6
	c-0.9,0.4-1.7,0.7-2.6,1.1c-4.8,2.1-9.8,4.2-14.8,6.3c-1.8,0.7-3.6,1.4-5.6,2c-1.7,0.6-3.4,1.2-5.2,1.8c-1.4,0.5-2.4,1.3-3.4,2
	c-0.3,0.2-0.6,0.5-1,0.7l0,0c-1.1,0.7-1.7,1.9-1.7,3.2v2.4c0,0.8,0.2,1.6,0.7,2.2l0,0c1.2,1.7,3.3,3.5,6.4,3.5c1,0,2.2-0.2,3.5-0.6
	c11.8-3.9,22.4-8.3,32.5-13.4c1.6,1.4,3.5,2.7,5.7,3.9c2.5,1.4,5.1,2.8,7.7,4.1c1.7,0.9,3.5,1.8,5.2,2.8c4.8,2.6,9.9,3.3,15.2,2.1
	c3.8-0.9,7.7-1.8,11.4-2.6l1.5-0.3c4.1-0.9,7-2.9,8.7-6c2.2,0.1,4.2,0.2,6.3,0.5c4.9,0.7,8.8-0.8,11.8-2.3
	c8.1-3.9,14.9-9.2,21.7-14.8c0.9-0.8,1.9-1.5,2.8-2.3c4-3.5,5.5-7.3,4.6-11.7c1.4-0.3,2.8-0.7,4.2-0.9c4.5-0.7,8.2-2.7,11-6
	c5.1-6,10.5-12.5,16.4-19.9c1.7-2.1,3.2-4.3,4.6-6.4c0.5-0.7,1-1.5,1.5-2.2c2.9-4.1,3.9-7.8,3.1-11.2c-0.5-2.1-1.6-4-3.4-5.7
	C264,172.7,272.8,157.8,278,138.8z M226.6,188.1c-0.5,0.2-0.9,0.6-1.8,1.2c1.3,0.2,2,0.4,2.7,0.5c4.6,0.4,9.3,0.9,13.9,1.3
	c3,0.3,3.6,1.3,1.8,3.9c-3.5,4.9-6.9,9.8-10.6,14.6c-3.7,4.7-7.6,9.2-11.6,13.5c-1.1,1.2-3,2.1-4.7,2.5c-9.4,2.2-18.9,4.3-28.4,6.4
	c-0.7,0.1-1.3,0.4-1.9,0.7c0.8,0.8,1.6,1.1,2.4,1.3c4.3,1.1,8.6,2.2,12.9,3.4c0.7,0.2,1.8,0.8,1.8,1.2c0.1,0.7-0.5,1.6-1.1,2.1
	c-1.7,1.5-3.5,3-5.3,4.4c-5.8,4.4-11.5,9-18.3,11.9c-1.3,0.6-2.9,0.8-4.3,0.7c-7.1-0.4-14.3-1-21.4-1.5c-0.7,0-1.4,0.1-2,0.1
	c-0.1,0.2-0.1,0.4-0.2,0.6c1.7,1.2,3.5,2.3,5.2,3.6c0.6,0.4,1,1.2,1.5,1.8c-0.7,0.4-1.3,1-2,1.2c-4.5,1.1-9.1,2.1-13.6,3.1
	c-2.5,0.6-4.9,0.1-7.2-1.1c-4.3-2.3-14.8-8-14.5-8.2c16.2-9,30-21.5,44.2-33.4c1.1-1,2.2-0.7,3.4-0.5c6.8,1.4,13.7,2.2,20.7,1.8
	c5.8-0.3,11.6-1.1,17-3.3c1.9-0.8,2.7-2.5,2-4.2s-2.4-2.5-4.3-1.8c-6.8,2.5-13.9,3.1-21.1,2.8c-3.3-0.1-6.5-0.6-10.2-1
	c3.3-3,6.1-5.7,9.1-8.3c0.4-0.3,1.1-0.3,1.7-0.4c6.1-0.3,12.2-0.3,18.2-0.8c8.2-0.8,16.2-2.6,23.9-5.7c2.1-0.8,2.9-2.5,2.3-4.3
	c-0.7-1.9-2.5-2.6-4.7-1.7c-6.8,2.6-13.9,4.2-21.2,5.1c-4.2,0.5-8.5,0.7-12.8,1.1c0.3-1,0.8-1.5,1.3-2.1c6.9-7.6,14-15.1,20.6-22.9
	c2.6-3,5.3-4.5,9.1-5.3c6.3-1.4,12.5-3.7,18.7-5.7c2-0.7,2.6-2.6,1.9-4.3c-0.8-1.8-2.5-2.4-4.6-1.5c-1.2,0.5-2.3,1.1-3.5,1.5
	c-3.7,1.2-7.5,2.3-11.2,3.5c0.2-1.1,0.7-1.7,1.1-2.3c4.7-6.7,9.5-13.3,14.2-20c1.6-2.3,1.4-4.1-0.3-5.3c-1.8-1.2-3.5-0.6-5,1.7
	c-0.1,0.2-0.2,0.3-0.3,0.5c-8.7,13.1-18.1,25.5-28.4,37.4c-0.5,0.5-0.9,1-1.4,1.5c-0.2-0.1-0.4-0.1-0.7-0.2c-0.2-5-0.4-10-0.4-14.9
	c0-3.1-0.9-4.7-3.1-4.7c-2.1-0.1-3.3,1.5-3.4,4.6c-0.3,6.6,0.3,13.2,1.6,19.7c0.3,1.4,0.1,2.5-1,3.6c-5.6,5.6-11.1,11.2-16.6,16.9
	c-0.3,0.3-0.7,0.5-1.1,0.9c-0.1-0.4-0.1-0.6-0.1-0.8c0.3-10.6,1.7-21,5.9-30.8c0.9-2.2,0.4-4-1.4-4.8c-1.8-0.8-3.6,0-4.5,2.2
	s-1.8,4.4-2.5,6.6c-3.2,10.4-4.3,21-4,31.8c0,1.4-0.3,2.4-1.4,3.3c-3.3,2.7-6.4,5.6-9.7,8.2c-3.7,3-7.5,5.9-11.2,8.7
	c-0.3-0.2-0.4-0.2-0.4-0.3c0-0.4-0.1-0.8-0.1-1.2c0.2-11,1.8-21.8,6-32c0.9-2.2,0.2-4-1.6-4.7c-1.7-0.7-3.4,0.1-4.3,2.2
	c-0.5,1.1-0.9,2.2-1.3,3.4c-4.1,11.5-5.5,23.5-5.1,35.6c0,1.4-13.2,9.4-28.5,16.5c-1.4-4.4-0.1-12.8,0.2-16.6
	c0.3-2.9,0.4-5.9,1.4-8.5c1.8-4.6,4.2-8.9,6.4-13.3c0.9-1.7,2-1.7,3-0.1c1.3,2.1,2.5,4.3,3.8,6.5c0.3,0.6,0.8,1.1,1.4,2
	c1.6-18.4,14-28.3,27-38.5c1.5,5.5,2.9,10.6,4.3,15.7c0.1,0,0.3,0,0.4,0c0.1-0.3,0.3-0.7,0.4-1c1.1-5.2,2-10.5,3.3-15.6
	c1.1-4.5,2.7-8.8,5.4-12.5c3.8-5.1,7.7-10.2,11.6-15.4c3.5-4.7,6.1-5.1,10.6-1.5c1.5,1.2,2.3,1,3.1-0.6c2.1-4.2,4.2-8.5,6.5-12.6
	c1.3-2.2,2.8-4.4,4.6-6c16.7-14.7,33.5-29.3,50.4-43.9c1.9-1.6,4.1-2.9,6.4-3.9c3.6-1.5,6.7-0.4,8.2,3.2c1.2,2.9,2.2,6,2.4,9.1
	c1.4,18-0.9,35.4-7.8,52.1C256.7,165.6,244.9,179.9,226.6,188.1z"/>
</svg>
