<?xml version="1.0" encoding="utf-8"?>
<!-- Generator: Adobe Illustrator 25.4.1, SVG Export Plug-In . SVG Version: 6.00 Build 0)  -->
<svg version="1.1" id="Capa_1" xmlns="http://www.w3.org/2000/svg" xmlns:xlink="http://www.w3.org/1999/xlink" x="0px" y="0px"
	 viewBox="0 0 230 230" style="enable-background:new 0 0 230 230;" xml:space="preserve">
<style type="text/css">
	.st0{fill:#0066CC;}
</style>
<path class="st0" d="M-227.5,73.7c0,49.2,0.4,98.3-0.2,147.5c-0.2,18.9-1,38.2-4.8,56.6c-9.3,45.3-45.7,79.5-91.4,86.5
	c-17,2.6-34.5,3.2-51.8,3.2c-95.5,0.3-191,0.3-286.4,0c-22.4-0.1-45,0.1-67-5.7c-43.8-11.5-77.4-49.3-82.6-94.1
	c-1.9-16-2.8-32.2-2.8-48.3c-0.2-92.6-0.2-185.3,0.1-278c0.1-19.6,0.6-39.3,2.6-58.8c5-47.9,39-85.8,86.4-97.2
	c9.3-2.2,19-3.2,28.6-3.8c13.8-0.9,27.6-1.1,41.5-1.1c93.3-0.1,186.6-0.2,279.9,0.1c19.4,0.1,39,0.1,58.1,4.6
	c47.6,11.2,81.5,48.7,87.1,97.2c1.9,16.2,2.5,32.6,2.6,48.8C-227.2-21.3-227.4,26.2-227.5,73.7C-227.4,73.7-227.4,73.7-227.5,73.7z
	 M-511.2,47.8c0-9.8-0.1-18.6,0.1-27.4c0.1-3.9-0.9-5.6-5.3-5.6c-19.2,0.2-38.3,0.2-57.5,0c-4.6-0.1-5.5,1.5-5.5,5.8
	c0.1,75.2,0.1,150.3,0.1,225.5c0,1.8,0.2,3.5,0.3,5.5c2.2,0.1,3.8,0.3,5.4,0.3c20.2,0,40.3-0.2,60.5,0.1c4.9,0.1,6.1-1.5,6.1-6.2
	c-0.2-32.5-0.1-65-0.1-97.5c0-9.2-0.5-18.4,0.4-27.5c1.9-19.2,12.3-37.9,36.7-42c15.7-2.6,30.3-0.6,42.2,11.2
	c9,8.9,11.6,20.3,11.6,32.5c0,41.2,0,82.3-0.2,123.5c0,4.4,1,6.1,5.7,6c20.7-0.2,41.3-0.2,62,0c4.2,0,4.9-1.5,4.9-5.2
	c-0.1-49.5,0.3-99-0.2-148.5c-0.2-22.6-8.1-43.5-23.6-59.6c-26.7-27.9-60.1-34-96.5-23.3C-482.8,20.8-498.5,31.5-511.2,47.8z
	 M-618.9,251.3c0-2.7,0-5,0-7.4c0-63,0-125.9,0-188.9c0-11.8-0.1-23.7,0.1-35.5c0-3.3-0.8-4.8-4.5-4.8c-21.8,0.1-43.6,0.1-65.5,0
	c-3.3,0-4.4,1.2-4.3,4.4c0.1,5.8,0,11.7,0,17.5c0,69.5,0,138.9,0,208.4c0,6.7,0,6.7,6.9,6.7c20.2,0,40.3,0,60.5,0
	C-623.5,251.8-621.4,251.5-618.9,251.3z M-613.7-61.3c0-23.3-18.6-42.2-41.6-42.4c-23.9-0.2-43,18.7-43,42.6
	c0,23,19.3,42.2,42.5,42.2C-632.6-18.9-613.7-37.9-613.7-61.3z"/>
<g>
	<path class="st0" d="M227.5,114.9c0-18.2,0.1-36.4,0-54.6c0-6.2-0.3-12.5-1-18.7C224.3,23,211.3,8.6,193,4.3
		c-7.3-1.7-14.8-1.7-22.3-1.8C135,2.5,99.3,2.5,63.5,2.5c-5.3,0-10.6,0.1-15.9,0.4c-3.7,0.2-7.4,0.6-11,1.5
		C18.5,8.8,5.5,23.3,3.6,41.6c-0.8,7.5-1,15-1,22.5c-0.1,35.5-0.1,71,0,106.5c0,6.2,0.4,12.4,1.1,18.5c2,17.2,14.9,31.6,31.6,36.1
		c8.4,2.2,17.1,2.2,25.7,2.2c36.6,0.1,73.2,0.1,109.7,0c6.6,0,13.3-0.2,19.8-1.2c17.5-2.7,31.4-15.8,35-33.2
		c1.4-7.1,1.7-14.4,1.8-21.7C227.6,152.5,227.4,133.7,227.5,114.9C227.5,114.9,227.5,114.9,227.5,114.9z M137,74
		c12.1,0,24.3,0,36.7,0c0,4.1,0,8.1,0,12.1c-12.3,0-24.4,0-36.7,0C137,82.1,137,78.1,137,74z M99.9,159.8c-5.3,0.8-10.7,0.9-16,1
		c-13.2,0.2-26.4,0.1-39.6,0.2c-0.4,0-0.8,0-1.4-0.1c0-31.1,0-62.1,0-93.3c0.7,0,1.3,0,1.9,0c13.1,0,26.1-0.1,39.2,0.1
		c5.1,0.1,10.3,0.3,15.2,1.6c8.7,2.2,14.5,8,16.6,16.8c2.1,8.6-0.6,16.1-7.2,22c-1.5,1.1-3.2,2-4.9,3.2c6.6,2.2,11.8,5.8,15,12.2
		C124.9,136,118.2,156.9,99.9,159.8z M159.8,148.6c3.7-0.8,5.9-3.3,7.3-6.7c0.3-0.8,0.6-1.6,1-2.6c5.9,1,11.8,2,17.9,3
		c-3.4,9.3-9.2,15.9-18.7,18.7c-7.6,2.2-15.2,2-22.8-0.2c-8.7-2.6-14.8-8.4-17.9-16.8c-4.4-11.7-4.2-23.5,0.7-34.9
		c4.9-11.2,16.2-17.9,28.5-17.4c9.2,0.4,17.1,3.3,23.1,10.5c4.4,5.3,6.4,11.6,7.3,18.3c0.5,3.8,0.6,7.7,0.9,11.8
		c-15.1,0-29.9,0-44.7,0C141.8,142.2,149.3,150.9,159.8,148.6z"/>
	<path class="st0" d="M94.7,122.2c-2.1-0.8-4.4-1.3-6.6-1.4c-7.6-0.3-15.1-0.3-22.7-0.4c-1.2-0.1-2.4-0.1-3.7-0.1
		c0,4.4,0,8.4,0,12.5c0,4,0,8.1,0,12.2c0.8,0,1.4,0.1,1.9,0.1c6.6,0,13.2,0,19.8,0c2.8,0,5.7-0.2,8.5-0.6c5.4-0.8,8.7-4.3,9.4-9.4
		C102.1,129.2,99.8,124.3,94.7,122.2z"/>
	<path class="st0" d="M75.7,104.6c4.3-0.1,8.6,0,12.9-0.5c5.6-0.6,9.1-4.6,9.3-9.9c0.2-5.3-2.6-9.1-7.6-10.3c-1.3-0.3-2.7-0.5-4-0.5
		c-7.7-0.1-15.4-0.1-23.1-0.1c-0.5,0-0.9,0.1-1.5,0.1c0,7,0,14,0,21.2C66.5,104.6,71.1,104.7,75.7,104.6z"/>
	<path class="st0" d="M162.7,107.5c-4.4-2.8-9-2.9-13.5-0.3c-5.1,3-6.7,8-6.7,13.8c8.8,0,17.6,0,26.5,0
		C168.8,115.5,167.5,110.6,162.7,107.5z"/>
</g>
</svg>
