<?xml version="1.0" encoding="utf-8"?>
<!-- Generator: Adobe Illustrator 25.4.1, SVG Export Plug-In . SVG Version: 6.00 Build 0)  -->
<svg version="1.1" id="Capa_1" xmlns="http://www.w3.org/2000/svg" xmlns:xlink="http://www.w3.org/1999/xlink" x="0px" y="0px"
	 viewBox="0 0 230 230" style="enable-background:new 0 0 230 230;" xml:space="preserve">
<style type="text/css">
	.st0{fill:#FFFFFF;}
</style>
<g>
	<path class="st0" d="M162.7,107.5c-4.4-2.8-9-2.9-13.5-0.3c-5.1,3-6.7,8-6.7,13.8c8.8,0,17.6,0,26.5,0
		C168.8,115.6,167.5,110.7,162.7,107.5z"/>
	<path class="st0" d="M94.6,122.1c-2.1-0.8-4.4-1.3-6.6-1.4c-7.6-0.3-15.1-0.3-22.7-0.4c-1.2,0-2.3,0-3.7,0c0,4.4,0,8.4,0,12.5
		c0,4,0,8.1,0,12.2c0.8,0,1.4,0.1,1.9,0.1c6.6,0,13.2,0,19.8,0c2.8,0,5.7-0.2,8.5-0.6c5.4-0.8,8.7-4.3,9.4-9.4
		C102.1,129.1,99.7,124.2,94.6,122.1z"/>
	<path class="st0" d="M75.7,104.5c4.3-0.1,8.6,0,12.9-0.5c5.6-0.6,9.1-4.6,9.3-9.9c0.2-5.3-2.6-9.1-7.6-10.3c-1.3-0.3-2.7-0.5-4-0.5
		c-7.7-0.1-15.4-0.1-23.1-0.1c-0.5,0-0.9,0.1-1.5,0.1c0,7.1,0,14,0,21.2C66.5,104.6,71.1,104.6,75.7,104.5z"/>
	<path class="st0" d="M227.5,25.2c0-13-9.7-22.7-22.8-22.7c-27.2,0-147.5,0-180.4,0.1c-12.1,0-21.7,9.7-21.8,21.7
		c-0.1,21.7,0,142.3,0,181c0,12.6,9.9,22.3,22.5,22.2c30,0,153,0,180.8-0.1c1.6,0,3.3-0.2,4.9-0.6c9.9-2.5,16.7-11,16.8-21.2
		C227.5,180.8,227.5,60.6,227.5,25.2z M136.9,74c12.2,0,24.4,0,36.7,0c0,4.1,0,8.1,0,12.1c-12.3,0-24.4,0-36.7,0
		C136.9,82.1,136.9,78.1,136.9,74z M99.8,159.8c-5.3,0.8-10.7,0.9-16,1c-13.2,0.2-26.4,0.1-39.6,0.2c-0.4,0-0.8,0-1.4-0.1
		c0-31.1,0-62.1,0-93.3c0.7,0,1.3,0,1.9,0c13.1,0,26.1-0.1,39.2,0.1c5.1,0.1,10.3,0.3,15.2,1.6c8.7,2.2,14.5,8,16.6,16.8
		c2.1,8.6-0.6,16.1-7.2,22c-1.4,1.3-3.1,2.2-4.8,3.4c6.6,2.2,11.8,5.8,15,12.2C124.9,136,118.2,156.9,99.8,159.8z M159.8,148.5
		c3.7-0.8,5.9-3.3,7.3-6.7c0.3-0.8,0.6-1.6,1-2.6c5.9,1,11.8,2,17.9,3c-3.4,9.3-9.2,15.9-18.7,18.7c-7.6,2.2-15.2,2-22.8-0.2
		c-8.7-2.6-14.8-8.4-17.9-16.8c-4.4-11.7-4.2-23.5,0.7-34.9c4.9-11.2,16.2-17.9,28.5-17.4c9.2,0.4,17.1,3.3,23.1,10.5
		c4.4,5.3,6.4,11.6,7.3,18.3c0.5,3.8,0.6,7.7,0.9,11.8c-15.2,0-30,0-44.8,0C141.7,142.2,149.3,150.8,159.8,148.5z"/>
</g>
</svg>
