<?xml version="1.0" encoding="utf-8"?>
<!-- Generator: Adobe Illustrator 25.4.1, SVG Export Plug-In . SVG Version: 6.00 Build 0)  -->
<svg version="1.1" id="Capa_1" xmlns="http://www.w3.org/2000/svg" xmlns:xlink="http://www.w3.org/1999/xlink" x="0px" y="0px"
	 viewBox="0 0 350 585" style="enable-background:new 0 0 350 585;" xml:space="preserve">
<style type="text/css">
	.st0{fill:#FF6633;}
	.st1{opacity:0.5;fill:#FF6633;}
</style>
<g>
	<g>
		<g>
			<g>
				<path class="st0" d="M175,0C78.4,0,0,78.4,0,174.9s78.4,174.9,175,174.9s175-78.4,175-174.9S271.6,0,175,0z M291.7,291.6
					c-31.2,31.1-72.6,48.3-116.7,48.3s-85.5-17.2-116.7-48.3C27.2,260.4,10,219,10,174.9S27.2,89.5,58.3,58.3
					C89.5,27.2,130.9,10,175,10s85.5,17.2,116.7,48.3S340,130.8,340,174.9S322.8,260.4,291.7,291.6z"/>
			</g>
		</g>
		<path class="st1" d="M345.5,208.2l-11,9.1c-7.4,27.8-22,53.3-42.8,74.2c-28.2,28.1-64.8,44.8-104.1,47.8L175,349.8l-12.6-10.5
			c-39.3-3-75.9-19.7-104.1-47.8c-20.8-20.9-35.4-46.4-42.8-74.2l-11-9.1l162.2,360.3c-1.3,1.7-2,3.8-2,6.1
			c0,5.7,4.6,10.3,10.3,10.3s10.3-4.6,10.3-10.3c0-2.3-0.8-4.4-2-6.1L345.5,208.2z"/>
	</g>
</g>
<g>
	<path class="st0" d="M145.8,306.9c-1,0-2-0.2-2.9-0.8c-2.4-1.3-3.6-4.2-2.9-6.8l27-99H68.3c-2.4,0-4.6-1.4-5.5-3.6
		c-1-2.2-0.5-4.7,1.1-6.5L199.6,44.8c1.9-2,4.9-2.5,7.3-1.1c2.4,1.3,3.6,4.2,2.9,6.8l-27,99h98.8c2.4,0,4.6,1.4,5.5,3.6
		c1,2.2,0.5,4.7-1.1,6.5L150.2,305C149.1,306.2,147.4,306.9,145.8,306.9z M82.1,188.3h92.8c1.9,0,3.6,0.9,4.8,2.4
		c1.1,1.5,1.5,3.4,1,5.2l-22.7,83.2l109.7-117.5h-92.8c-1.9,0-3.6-0.9-4.8-2.4c-1.1-1.5-1.5-3.4-1-5.2l22.7-83.2L82.1,188.3z"/>
</g>
</svg>
