<?xml version="1.0" encoding="utf-8"?>
<!-- Generator: Adobe Illustrator 25.4.1, SVG Export Plug-In . SVG Version: 6.00 Build 0)  -->
<svg version="1.1" id="Capa_1" xmlns="http://www.w3.org/2000/svg" xmlns:xlink="http://www.w3.org/1999/xlink" x="0px" y="0px"
	 viewBox="0 0 290 290" style="enable-background:new 0 0 290 290;" xml:space="preserve">
<style type="text/css">
	.st0{fill:#FFFFFF;}
</style>
<g>
	<path class="st0" d="M133.2,135c14.7-7.2,29.4-14.5,44.2-21.8c1.7-0.8,2.9-1.7,2.3-3.6c0-4.6-2.1-6.7-6.6-6.7
		c-28.1,0-56.2,0-84.3,0c-1,0-2.2,0.2-3.1,0.6c-2.6,1.1-3,3.5-3.2,6c-0.1,1.4,0.1,2.4,1.7,3.1c15.2,7.5,30.4,15,45.6,22.5
		C130.8,135.6,132.3,135.5,133.2,135z"/>
	<path class="st0" d="M176.9,176.5c-14.5-7-29-14.2-43.4-21.4c-1.5-0.7-2.6-0.8-4.2,0c-14.4,7.2-28.9,14.4-43.4,21.5
		c-3.8,1.9-4,2.3-2.9,6.3c0.8,3,2.5,4.1,6.5,4.1c13.9,0,27.7,0,41.6,0c13.8,0,27.6,0,41.3,0c1.1,0,2.1,0,3.2-0.2
		c2.6-0.6,3.8-2.4,4.2-5.5C180.1,178.9,179.2,177.6,176.9,176.5z"/>
	<path class="st0" d="M237.3,26.4H52.8c-14.5,0-26.4,11.8-26.4,26.4v184.5c0,14.5,11.8,26.4,26.4,26.4h184.5
		c14.5,0,26.4-11.8,26.4-26.4V52.8C263.7,38.3,251.9,26.4,237.3,26.4z M223.4,196.2c0,2.9-0.5,3.2-3.1,1.9
		c-8.1-4-16.2-8.1-24.5-12.2c-0.4,0.9-0.7,1.8-1.1,2.7c-3.3,8.9-11.2,14.5-20.6,14.5c-28.5,0-57.1,0-85.6,0
		c-12.7,0-21.9-9.2-21.9-21.8c0-3,0.2-6.1,0-9.1c-0.2-2.9,0.9-4.5,3.5-5.8c13.4-6.5,26.7-13.2,40.1-19.8c0.8-0.4,1.7-0.9,2.9-1.6
		c-5-2.5-9.7-4.9-14.3-7.2c-9.6-4.8-19.2-9.6-28.9-14.3c-2.4-1.2-3.5-2.8-3.3-5.4c0.2-4.6-0.2-9.3,0.5-13.8C68.9,94,77.4,87,88,87
		c29-0.1,57.9-0.1,86.9,0c8.8,0,17,6.2,19.8,14.5c0.3,0.8,0.6,1.6,1,2.7c4.8-2.4,9.4-4.6,14-6.9c3.7-1.9,7.5-3.7,11.2-5.6
		c1.9-0.9,2.6-0.4,2.6,1.6c0,4.3-0.1,8.5,0,12.8c0,2.2-1.5,3-3.1,3.8c-13.9,6.9-27.8,13.8-41.7,20.7c-8.7,4.3-17.3,8.6-26,12.9
		c-0.9,0.4-1.7,0.9-2.9,1.6c6,3,11.7,5.8,17.4,8.6c17.7,8.8,35.5,17.6,53.2,26.3c2.2,1.1,3.2,2.4,3.1,4.9
		C223.3,188.7,223.4,192.5,223.4,196.2z"/>
</g>
</svg>
