<?xml version="1.0" encoding="utf-8"?>
<!-- Generator: Adobe Illustrator 25.4.1, SVG Export Plug-In . SVG Version: 6.00 Build 0)  -->
<svg version="1.1" id="Capa_1" xmlns="http://www.w3.org/2000/svg" xmlns:xlink="http://www.w3.org/1999/xlink" x="0px" y="0px"
	 viewBox="0 0 400 400" style="enable-background:new 0 0 400 400;" xml:space="preserve">
<style type="text/css">
	.st0{fill:#FFFFFF;}
	.st1{fill:#5D2784;}
</style>
<g>
	<path class="st0" d="M308.6,314.3c-2.9-10.9-5.9-22.2-9-33.3c8.5-15.9,12.7-33.3,12.7-51.7c0,0,0,0,0-0.1c0-5.5-0.3-10.2-0.9-14.5
		c-3.9-31.3-21.3-59.7-47.9-77.9c-2.8-1.9-5.7-3.7-8.6-5.4c-2.7-1.5-3.2-5.1-1.1-7.4c0,0,0,0,0.1-0.1c3.4-3.7,5.3-8.6,5.3-13.7v-42
		c0.2-4.5-1.4-9-4.4-12.4c-3.3-3.7-8.1-5.9-13.1-5.9c-4.1,0-8,1.4-11.2,4l-2.6,2.1l-2.6-2.1c-3.4-2.7-7.7-4.1-12.1-3.9
		c-3.9,0.1-7.6,1.5-10.7,4l-2.4,1.9l-2.6-2.1c-0.5-0.4-1.1-0.8-1.7-1.2c-0.1,0-0.1-0.1-0.2-0.1c-0.7-0.4-1.4-0.8-2.2-1.1
		c0.3,0.1,0.6,0.3,0.9,0.4l0,0c-0.3-0.2-0.6-0.3-0.9-0.4c-0.2-0.1-0.4-0.2-0.6-0.3c-0.9-0.3-1.8-0.6-2.7-0.8c-1.8-0.4-3.2-0.4-4-0.4
		h-0.2c-4.1,0-8,1.4-11.2,4l-2.6,2.1l-2.6-2.1c-0.1-0.1-0.2-0.1-0.2-0.2c-3.7-2.8-8.3-4.1-12.9-3.6c-4.7,0.5-9,3-11.9,6.7
		c-2.5,3.1-3.9,7.1-3.9,11v42.3c0,5.1,1.9,9.9,5.3,13.7c0,0,0,0,0,0.1c2.1,2.3,1.6,5.9-1.1,7.5c-39.1,21.8-61.9,64.8-56.3,111.6
		c4.1,34.8,22.1,62.9,51.8,81.3c18.9,11.7,38.7,17.5,58.9,17.5c17.3,0,34.9-4.3,52.3-13c9.4,2.7,19,5.2,28.2,7.6
		c2.6,0.7,5.2,1.4,7.8,2c3.4,0.9,11.5,3,18.1-3.5c6.6-6.6,4.4-14.7,3.5-18.2L308.6,314.3z"/>
</g>
<g>
	<g>
		<path class="st1" d="M297.3,229.3c0.1,16.1-3.6,31.3-11.3,45.4c-1.7,3.2-2,6.1-1,9.5c3.4,12.1,6.6,24.3,9.8,36.5
			c1.1,4.3,1,4.5-3.3,3.3c-12-3.2-24.1-6.3-36.1-9.7c-3.7-1.1-6.7-0.7-10.2,1c-32.9,16.4-65.6,15.6-96.9-3.8
			c-25.9-16.1-41.2-39.9-44.8-70.3c-5.9-49.8,25.2-94.5,73.8-106.6c55.5-13.8,112.2,25.2,119.2,81.9
			C297.1,220.7,297.3,225,297.3,229.3z M244.2,245.5c9.5,0.1,16.7-6.7,17-16.1c0.3-8.7-7.3-16.6-16.1-16.8
			c-9.3-0.2-16.7,7-16.8,16.3C228.1,238.1,235.2,245.4,244.2,245.5z M200.1,245.6c9.2,0,16.4-7.1,16.4-16.2c0-9-7.3-16.6-16-16.8
			c-9-0.1-16.9,7.5-16.9,16.4C183.5,238.3,190.7,245.6,200.1,245.6z M171.8,229.3c0-9.3-6.9-16.5-16.1-16.6
			c-9.1-0.1-16.3,7.1-16.4,16.3c-0.1,9.6,6.8,16.7,16.3,16.6C165,245.5,171.8,238.8,171.8,229.3z"/>
	</g>
	<path class="st1" d="M241.7,65c-0.6,0-1.2,0.2-1.7,0.6l-12,9.6l-12-9.6c-0.6-0.5-1.3-0.6-2-0.6c-0.1,0-0.1,0-0.2,0
		c-0.6,0-1.2,0.2-1.7,0.6L200.3,75l-12-9.6c-0.2-0.1-0.3-0.2-0.5-0.3c-0.1-0.1-0.3-0.1-0.4-0.2h-0.1c-0.4-0.1-0.6-0.1-1-0.1
		c-0.1,0-0.1,0-0.2,0c-0.6,0-1.2,0.2-1.7,0.6l-12,9.6l-12-9.6c-1.2-0.9-2.9-0.7-3.9,0.5c-0.4,0.5-0.6,1.1-0.6,1.7v42.3
		c0,1.3,0.5,2.6,1.4,3.6s2.2,1.6,3.6,1.6l33.9,3.9c3.6,0.5,7.2,0.5,10.6,0l33.9-3.9c1.4,0,2.7-0.6,3.6-1.6c0.9-1,1.4-2.3,1.4-3.6
		V67.8C244.4,66.2,243.2,65,241.7,65z"/>
</g>
</svg>
