<?xml version="1.0" encoding="utf-8"?>
<!-- Generator: Adobe Illustrator 25.4.1, SVG Export Plug-In . SVG Version: 6.00 Build 0)  -->
<svg version="1.1" id="Capa_1" xmlns="http://www.w3.org/2000/svg" xmlns:xlink="http://www.w3.org/1999/xlink" x="0px" y="0px"
	 viewBox="0 0 350 350" style="enable-background:new 0 0 350 350;" xml:space="preserve">
<style type="text/css">
	.st0{fill:none;stroke:#000000;stroke-width:10;stroke-linecap:round;stroke-linejoin:round;}
</style>
<g>
	<g>
		<path class="st0" d="M25.8,179.8c-1-3.1-1-6.5,0-9.6C46.5,107.7,105.5,62.5,175,62.5c69.5,0,128.4,45.1,149.2,107.7
			c1,3.1,1,6.5,0,9.6c-20.8,62.6-79.7,107.7-149.2,107.7C105.5,287.5,46.6,242.4,25.8,179.8L25.8,179.8z"/>
		<path class="st0" d="M219.9,175c0,24.9-20.1,45-44.9,45s-44.9-20.1-44.9-45s20.1-45,44.9-45S219.9,150.1,219.9,175z"/>
	</g>
</g>
</svg>
