<?xml version="1.0" encoding="utf-8"?>
<!-- Generator: Adobe Illustrator 25.4.1, SVG Export Plug-In . SVG Version: 6.00 Build 0)  -->
<svg version="1.1" id="Capa_1" xmlns="http://www.w3.org/2000/svg" xmlns:xlink="http://www.w3.org/1999/xlink" x="0px" y="0px"
	 viewBox="0 0 500 500" style="enable-background:new 0 0 500 500;" xml:space="preserve">
<style type="text/css">
	.st0{opacity:0.3;}
	.st1{fill:#8C8C8C;}
	.st2{opacity:0.5;}
	.st3{fill:none;stroke:#8C8C8C;stroke-width:1;stroke-linejoin:round;stroke-miterlimit:4;stroke-dasharray:4.009,4.009;}
	.st4{fill:none;stroke:#8C8C8C;stroke-width:1;stroke-linejoin:round;stroke-miterlimit:4;stroke-dasharray:4.0146,4.0146;}
	.st5{fill:none;stroke:#8C8C8C;stroke-linejoin:round;stroke-dasharray:4.009,4.009;}
	.st6{fill:none;stroke:#8C8C8C;stroke-linejoin:round;stroke-dasharray:4.0146,4.0146;}
	.st7{fill:none;stroke:#0000FF;stroke-miterlimit:10;}
	
		.st8{opacity:0.5;fill:none;stroke:url(#SVGID_1_);stroke-linecap:round;stroke-linejoin:round;stroke-miterlimit:10;enable-background:new    ;}
	
		.st9{opacity:0.5;fill:none;stroke:url(#SVGID_00000137813576372603612750000011185054395586569357_);stroke-linecap:round;stroke-linejoin:round;stroke-miterlimit:10;enable-background:new    ;}
	
		.st10{opacity:0.5;fill:none;stroke:url(#SVGID_00000110441146877961126570000017650291008675133061_);stroke-linecap:round;stroke-linejoin:round;stroke-miterlimit:10;enable-background:new    ;}
	
		.st11{opacity:0.5;fill:none;stroke:url(#SVGID_00000052080541460048647700000010815891266348921245_);stroke-linecap:round;stroke-linejoin:round;stroke-miterlimit:10;enable-background:new    ;}
</style>
<g id="Capa_1_00000170254190622931741780000014244408631944536707_">
	<g class="st0">
		<path class="st1" d="M249.9,300c-27.5,0-49.9-22.4-49.9-50s22.4-50,49.9-50s49.9,22.4,49.9,50S277.5,300,249.9,300z M249.9,209.9
			c-22,0-39.9,17.9-39.9,40s17.9,40,39.9,40s39.9-17.9,39.9-40S271.9,209.9,249.9,209.9z"/>
	</g>
	<g class="st0">
		<g>
			<path class="st1" d="M249.9,456.6c-89.4,0-162.1-72.7-162.1-162.1s72.7-162.1,162.1-162.1S412,205.1,412,294.6
				S339.3,456.6,249.9,456.6z M249.9,142.4c-83.9,0-152.1,68.2-152.1,152.1S166,446.6,249.9,446.6S402,378.5,402,294.6
				S333.8,142.4,249.9,142.4z"/>
		</g>
		<g>
			<path class="st1" d="M249.9,367.6c-89.4,0-162.1-72.7-162.1-162.1S160.5,43.3,249.9,43.3S412,116,412,205.4
				S339.3,367.6,249.9,367.6z M249.9,53.3c-83.9,0-152.1,68.2-152.1,152.1S166,357.6,249.9,357.6S402,289.4,402,205.4
				S333.8,53.3,249.9,53.3z"/>
		</g>
	</g>
	<g id="Capa_2_00000084489595660447832780000004701790311777998259_">
	</g>
	<g class="st2">
		<g>
			<g>
				<g>
					<ellipse class="st3" cx="249.9" cy="294.5" rx="162.1" ry="162.1"/>
					<ellipse class="st4" cx="249.9" cy="294.5" rx="152.1" ry="152.1"/>
				</g>
			</g>
		</g>
		<g>
			<g>
				<g>
					<ellipse class="st5" cx="249.9" cy="205.4" rx="162.1" ry="162.1"/>
					<ellipse class="st6" cx="249.9" cy="205.4" rx="152.1" ry="152.1"/>
				</g>
			</g>
		</g>
	</g>
</g>
<g id="Capa_2_00000124164138045093781190000012735478534161821581_">
	<g id="Capa_1_00000155128619892232469160000014246458477803358338_">
		<g>
			<g>
				<g>
					<path class="st7" d="M249.9,367.5c-70,0-131.9-44.7-153.9-111.1l0,0c-1.3-4.1-1.3-8.6,0-12.7c22-66.5,83.9-111.2,154-111.2
						c70,0,131.9,44.7,153.9,111.1c1.3,4.1,1.3,8.6,0,12.7C381.8,322.9,319.9,367.5,249.9,367.5z M105.5,253.2
						c20.7,62.4,78.8,104.3,144.4,104.3c65.7,0,123.7-41.9,144.5-104.3c0.7-2.1,0.7-4.4,0-6.5c-20.7-62.3-78.8-104.2-144.4-104.2
						c-65.7,0-123.8,41.9-144.5,104.3C104.8,248.8,104.8,251.1,105.5,253.2z"/>
				</g>
				<g>
					<path class="st7" d="M249.9,300c-27.5,0-49.9-22.4-49.9-50s22.4-50,49.9-50s49.9,22.4,49.9,50S277.5,300,249.9,300z
						 M249.9,209.9c-22,0-39.9,17.9-39.9,40s17.9,40,39.9,40s39.9-17.9,39.9-40S271.9,209.9,249.9,209.9z"/>
				</g>
			</g>
		</g>
	</g>
	
		<linearGradient id="SVGID_1_" gradientUnits="userSpaceOnUse" x1="59.95" y1="722.05" x2="59.95" y2="271.05" gradientTransform="matrix(1 0 0 1 0 -246.6)">
		<stop  offset="0" style="stop-color:#FFFFFF"/>
		<stop  offset="1.659709e-02" style="stop-color:#F4F4F4"/>
		<stop  offset="7.043684e-02" style="stop-color:#D4D4D4"/>
		<stop  offset="0.129" style="stop-color:#B9B9B9"/>
		<stop  offset="0.1932" style="stop-color:#A5A5A5"/>
		<stop  offset="0.2657" style="stop-color:#979797"/>
		<stop  offset="0.3537" style="stop-color:#8F8F8F"/>
		<stop  offset="0.5" style="stop-color:#8C8C8C"/>
		<stop  offset="0.6463" style="stop-color:#8F8F8F"/>
		<stop  offset="0.7343" style="stop-color:#979797"/>
		<stop  offset="0.8068" style="stop-color:#A5A5A5"/>
		<stop  offset="0.871" style="stop-color:#B9B9B9"/>
		<stop  offset="0.9296" style="stop-color:#D4D4D4"/>
		<stop  offset="0.9834" style="stop-color:#F4F4F4"/>
		<stop  offset="1" style="stop-color:#FFFFFF"/>
	</linearGradient>
	<line class="st8" x1="59.9" y1="474.9" x2="59.9" y2="24.9"/>
	
		<linearGradient id="SVGID_00000102525624496280927760000007015739078719994037_" gradientUnits="userSpaceOnUse" x1="24.45" y1="686.55" x2="475.45" y2="686.55" gradientTransform="matrix(1 0 0 1 0 -246.6)">
		<stop  offset="0" style="stop-color:#FFFFFF"/>
		<stop  offset="1.659709e-02" style="stop-color:#F4F4F4"/>
		<stop  offset="7.043684e-02" style="stop-color:#D4D4D4"/>
		<stop  offset="0.129" style="stop-color:#B9B9B9"/>
		<stop  offset="0.1932" style="stop-color:#A5A5A5"/>
		<stop  offset="0.2657" style="stop-color:#979797"/>
		<stop  offset="0.3537" style="stop-color:#8F8F8F"/>
		<stop  offset="0.5" style="stop-color:#8C8C8C"/>
		<stop  offset="0.6463" style="stop-color:#8F8F8F"/>
		<stop  offset="0.7343" style="stop-color:#979797"/>
		<stop  offset="0.8068" style="stop-color:#A5A5A5"/>
		<stop  offset="0.871" style="stop-color:#B9B9B9"/>
		<stop  offset="0.9296" style="stop-color:#D4D4D4"/>
		<stop  offset="0.9834" style="stop-color:#F4F4F4"/>
		<stop  offset="1" style="stop-color:#FFFFFF"/>
	</linearGradient>
	
		<line style="opacity:0.5;fill:none;stroke:url(#SVGID_00000102525624496280927760000007015739078719994037_);stroke-linecap:round;stroke-linejoin:round;stroke-miterlimit:10;enable-background:new    ;" x1="475" y1="440" x2="24.9" y2="440"/>
	
		<linearGradient id="SVGID_00000076576681740625903100000005659921553899483541_" gradientUnits="userSpaceOnUse" x1="439.95" y1="722.05" x2="439.95" y2="271.05" gradientTransform="matrix(1 0 0 1 0 -246.6)">
		<stop  offset="0" style="stop-color:#FFFFFF"/>
		<stop  offset="1.659709e-02" style="stop-color:#F4F4F4"/>
		<stop  offset="7.043684e-02" style="stop-color:#D4D4D4"/>
		<stop  offset="0.129" style="stop-color:#B9B9B9"/>
		<stop  offset="0.1932" style="stop-color:#A5A5A5"/>
		<stop  offset="0.2657" style="stop-color:#979797"/>
		<stop  offset="0.3537" style="stop-color:#8F8F8F"/>
		<stop  offset="0.5" style="stop-color:#8C8C8C"/>
		<stop  offset="0.6463" style="stop-color:#8F8F8F"/>
		<stop  offset="0.7343" style="stop-color:#979797"/>
		<stop  offset="0.8068" style="stop-color:#A5A5A5"/>
		<stop  offset="0.871" style="stop-color:#B9B9B9"/>
		<stop  offset="0.9296" style="stop-color:#D4D4D4"/>
		<stop  offset="0.9834" style="stop-color:#F4F4F4"/>
		<stop  offset="1" style="stop-color:#FFFFFF"/>
	</linearGradient>
	
		<line style="opacity:0.5;fill:none;stroke:url(#SVGID_00000076576681740625903100000005659921553899483541_);stroke-linecap:round;stroke-linejoin:round;stroke-miterlimit:10;enable-background:new    ;" x1="440" y1="24.9" x2="440" y2="474.9"/>
	
		<linearGradient id="SVGID_00000070092023862029790870000005097629415951318453_" gradientUnits="userSpaceOnUse" x1="24.45" y1="306.55" x2="475.45" y2="306.55" gradientTransform="matrix(1 0 0 1 0 -246.6)">
		<stop  offset="0" style="stop-color:#FFFFFF"/>
		<stop  offset="1.659709e-02" style="stop-color:#F4F4F4"/>
		<stop  offset="7.043684e-02" style="stop-color:#D4D4D4"/>
		<stop  offset="0.129" style="stop-color:#B9B9B9"/>
		<stop  offset="0.1932" style="stop-color:#A5A5A5"/>
		<stop  offset="0.2657" style="stop-color:#979797"/>
		<stop  offset="0.3537" style="stop-color:#8F8F8F"/>
		<stop  offset="0.5" style="stop-color:#8C8C8C"/>
		<stop  offset="0.6463" style="stop-color:#8F8F8F"/>
		<stop  offset="0.7343" style="stop-color:#979797"/>
		<stop  offset="0.8068" style="stop-color:#A5A5A5"/>
		<stop  offset="0.871" style="stop-color:#B9B9B9"/>
		<stop  offset="0.9296" style="stop-color:#D4D4D4"/>
		<stop  offset="0.9834" style="stop-color:#F4F4F4"/>
		<stop  offset="1" style="stop-color:#FFFFFF"/>
	</linearGradient>
	
		<line style="opacity:0.5;fill:none;stroke:url(#SVGID_00000070092023862029790870000005097629415951318453_);stroke-linecap:round;stroke-linejoin:round;stroke-miterlimit:10;enable-background:new    ;" x1="24.9" y1="59.9" x2="475" y2="59.9"/>
</g>
</svg>
