<?xml version="1.0" encoding="utf-8"?>
<!-- Generator: Adobe Illustrator 25.4.1, SVG Export Plug-In . SVG Version: 6.00 Build 0)  -->
<svg version="1.1" id="Capa_1" xmlns="http://www.w3.org/2000/svg" xmlns:xlink="http://www.w3.org/1999/xlink" x="0px" y="0px"
	 viewBox="0 0 230 230" style="enable-background:new 0 0 230 230;" xml:space="preserve">
<style type="text/css">
	.st0{fill:#FFFFFF;}
</style>
<path class="st0" d="M227.5,26.6v176.8c0,13.3-10.8,24.1-24.1,24.1h-68.9V151h29l5.5-36h-34.5V91.6c0-9.8,4.8-19.5,20.3-19.5h15.7
	V41.5c0,0-14.3-2.4-27.9-2.4c-28.5,0-47,17.2-47,48.5V115H63.9v36h31.6v76.5H26.6c-13.3,0-24.1-10.8-24.1-24.1V26.6
	c0-13.3,10.8-24.1,24.1-24.1h176.8C216.7,2.5,227.5,13.3,227.5,26.6z"/>
</svg>
