<?xml version="1.0" encoding="utf-8"?>
<!-- Generator: Adobe Illustrator 25.4.1, SVG Export Plug-In . SVG Version: 6.00 Build 0)  -->
<svg version="1.1" id="Capa_1" xmlns="http://www.w3.org/2000/svg" xmlns:xlink="http://www.w3.org/1999/xlink" x="0px" y="0px"
	 viewBox="0 0 350 585" style="enable-background:new 0 0 350 585;" xml:space="preserve">
<style type="text/css">
	.st0{fill:#FF6633;}
	.st1{opacity:0.5;fill:#FF6633;}
</style>
<g>
	<g>
		<g>
			<g>
				<path class="st0" d="M175,0C78.4,0,0,78.4,0,174.9s78.4,174.9,175,174.9s175-78.4,175-174.9S271.6,0,175,0z M291.7,291.6
					c-31.2,31.1-72.6,48.3-116.7,48.3s-85.5-17.2-116.7-48.3C27.2,260.4,10,219,10,174.9S27.2,89.5,58.3,58.3
					C89.5,27.2,130.9,10,175,10s85.5,17.2,116.7,48.3S340,130.8,340,174.9S322.8,260.4,291.7,291.6z"/>
			</g>
		</g>
		<path class="st1" d="M345.5,208.2l-11,9.1c-7.4,27.8-22,53.3-42.8,74.2c-28.2,28.1-64.8,44.8-104.1,47.8L175,349.8l-12.6-10.5
			c-39.3-3-75.9-19.7-104.1-47.8c-20.8-20.9-35.4-46.4-42.8-74.2l-11-9.1l162.2,360.3c-1.3,1.7-2,3.8-2,6.1
			c0,5.7,4.6,10.3,10.3,10.3s10.3-4.6,10.3-10.3c0-2.3-0.8-4.4-2-6.1L345.5,208.2z"/>
	</g>
	<g>
		<g>
			<path class="st0" d="M174.9,276.9c-1,0-2-0.2-2.8-0.7l-96-51.7c-1.9-1-3.2-3.1-3.2-5.3s1.2-4.2,3.2-5.3l31.3-16.9l-31.3-16.9
				c-1.9-1-3.2-3.1-3.2-5.3s1.2-4.2,3.2-5.3l31.3-16.9l-31.3-16.7c-1.9-1-3.2-3.1-3.2-5.3s1.2-4.2,3.2-5.3l96-51.7
				c1.8-1,3.9-1,5.7,0l96,51.7c1.9,1,3.2,3.1,3.2,5.3s-1.2,4.2-3.2,5.3l-31.3,16.9l31.3,16.9c1.9,1,3.2,3.1,3.2,5.3
				s-1.2,4.2-3.2,5.3l-31.3,16.9l31.3,16.9c1.9,1,3.2,3.1,3.2,5.3s-1.2,4.2-3.2,5.3l-96,51.7C176.9,276.7,175.9,276.9,174.9,276.9z
				 M91.6,219.2l83.3,44.9l83.3-44.9l-28.4-15.3l-52,28c-1.8,1-3.9,1-5.7,0l-52-28L91.6,219.2z M123.1,191.8l51.9,28l51.9-28
				c0.1,0,0.1-0.1,0.2-0.1l31.3-16.8l-28.5-15.3l-52,28c-1.8,1-3.9,1-5.7,0l-52-28l-28.5,15.3l31.3,16.8
				C122.9,191.8,122.9,191.8,123.1,191.8z M123.1,147.5l51.9,28l51.9-28c0.1,0,0.1-0.1,0.2-0.1l31.3-16.8l-83.4-44.9l-83.3,44.9
				l31.3,16.8C122.9,147.5,122.9,147.5,123.1,147.5z"/>
		</g>
	</g>
</g>
</svg>
