<?xml version="1.0" encoding="utf-8"?>
<!-- Generator: Adobe Illustrator 25.4.1, SVG Export Plug-In . SVG Version: 6.00 Build 0)  -->
<svg version="1.1" id="Capa_1" xmlns="http://www.w3.org/2000/svg" xmlns:xlink="http://www.w3.org/1999/xlink" x="0px" y="0px"
	 viewBox="0 0 400 400" style="enable-background:new 0 0 400 400;" xml:space="preserve">
<style type="text/css">
	.st0{fill:#FF6633;}
</style>
<g>
	<g>
		<path class="st0" d="M200,25c-96.6,0-175,78.4-175,175s78.4,175,175,175s175-78.4,175-175S296.6,25,200,25z M316.7,316.7
			C285.5,347.8,244.1,365,200,365s-85.5-17.2-116.7-48.3C52.2,285.5,35,244.1,35,200s17.2-85.5,48.3-116.7
			C114.5,52.2,155.9,35,200,35s85.5,17.2,116.7,48.3S365,155.9,365,200S347.8,285.5,316.7,316.7z"/>
	</g>
</g>
<g>
	<g>
		<path class="st0" d="M200,302c-1,0-2-0.2-2.8-0.7l-96-51.7c-1.9-1-3.2-3.1-3.2-5.3s1.2-4.2,3.2-5.3l31.3-16.9l-31.3-16.9
			c-1.9-1-3.2-3.1-3.2-5.3s1.2-4.2,3.2-5.3l31.3-16.9L101.2,161c-1.9-1-3.2-3.1-3.2-5.3c0-2.2,1.2-4.2,3.2-5.3l96-51.7
			c1.8-1,3.9-1,5.7,0l96,51.7c1.9,1,3.2,3.1,3.2,5.3c0,2.2-1.2,4.2-3.2,5.3l-31.3,16.9l31.3,16.9c1.9,1,3.2,3.1,3.2,5.3
			s-1.2,4.2-3.2,5.3l-31.3,16.9l31.3,16.9c1.9,1,3.2,3.1,3.2,5.3s-1.2,4.2-3.2,5.3l-96,51.7C202,301.8,201,302,200,302z
			 M116.7,244.3l83.3,44.9l83.3-44.9L254.9,229l-52,28c-1.8,1-3.9,1-5.7,0l-52-28L116.7,244.3z M148.1,216.9l51.9,28l51.9-28
			c0.1,0,0.1-0.1,0.2-0.1l31.3-16.8l-28.5-15.3l-52,28c-1.8,1-3.9,1-5.7,0l-52-28L116.7,200l31.3,16.8
			C148,216.9,148,216.9,148.1,216.9z M148.1,172.6l51.9,28l51.9-28c0.1,0,0.1-0.1,0.2-0.1l31.3-16.8L200,110.8l-83.3,44.9l31.3,16.8
			C148,172.6,148,172.6,148.1,172.6z"/>
	</g>
</g>
</svg>
