<svg xmlns="http://www.w3.org/2000/svg" xmlns:xlink="http://www.w3.org/1999/xlink" viewBox="0 0 595.28 841.89"><defs><style>.cls-1{opacity:0.3;}.cls-2{fill:#8c8c8c;}.cls-10,.cls-11,.cls-12,.cls-3,.cls-9{opacity:0.5;}.cls-10,.cls-11,.cls-12,.cls-4,.cls-5,.cls-6,.cls-7,.cls-8,.cls-9{fill:none;}.cls-4,.cls-5,.cls-6,.cls-7{stroke:#8c8c8c;}.cls-10,.cls-11,.cls-12,.cls-4,.cls-5,.cls-6,.cls-7,.cls-9{stroke-linejoin:round;}.cls-4{stroke-dasharray:4.01 4.01;}.cls-5{stroke-dasharray:4.01 4.01;}.cls-6{stroke-dasharray:4.01 4.01;}.cls-7{stroke-dasharray:4.01 4.01;}.cls-8{stroke:blue;stroke-miterlimit:10;}.cls-10,.cls-11,.cls-12,.cls-9{stroke-linecap:round;}.cls-9{stroke:url(#Degradado_sin_nombre_232);}.cls-10{stroke:url(#Degradado_sin_nombre_232-2);}.cls-11{stroke:url(#Degradado_sin_nombre_232-3);}.cls-12{stroke:url(#Degradado_sin_nombre_232-4);}</style><linearGradient id="Degradado_sin_nombre_232" x1="107.64" y1="646.44" x2="107.64" y2="195.44" gradientUnits="userSpaceOnUse"><stop offset="0" stop-color="#fff"/><stop offset="0.02" stop-color="#f4f4f4"/><stop offset="0.07" stop-color="#d4d4d4"/><stop offset="0.13" stop-color="#bababa"/><stop offset="0.19" stop-color="#a5a5a5"/><stop offset="0.27" stop-color="#979797"/><stop offset="0.35" stop-color="#8f8f8f"/><stop offset="0.5" stop-color="#8c8c8c"/><stop offset="0.65" stop-color="#8f8f8f"/><stop offset="0.73" stop-color="#979797"/><stop offset="0.81" stop-color="#a5a5a5"/><stop offset="0.87" stop-color="#bababa"/><stop offset="0.93" stop-color="#d4d4d4"/><stop offset="0.98" stop-color="#f4f4f4"/><stop offset="1" stop-color="#fff"/></linearGradient><linearGradient id="Degradado_sin_nombre_232-2" x1="72.14" y1="610.94" x2="523.14" y2="610.94" xlink:href="#Degradado_sin_nombre_232"/><linearGradient id="Degradado_sin_nombre_232-3" x1="487.64" y1="646.44" x2="487.64" y2="195.44" xlink:href="#Degradado_sin_nombre_232"/><linearGradient id="Degradado_sin_nombre_232-4" x1="72.14" y1="230.94" x2="523.14" y2="230.94" xlink:href="#Degradado_sin_nombre_232"/></defs><g id="Capa_1" data-name="Capa 1"><g class="cls-1"><path class="cls-2" d="M297.64,471a50,50,0,1,1,49.9-50A50,50,0,0,1,297.64,471Zm0-90a40,40,0,1,0,39.9,40A40,40,0,0,0,297.64,380.94Z"/></g><g class="cls-1"><path class="cls-2" d="M297.64,627.64c-89.38,0-162.1-72.71-162.1-162.1s72.72-162.1,162.1-162.1,162.1,72.72,162.1,162.1S387,627.64,297.64,627.64Zm0-314.2c-83.87,0-152.1,68.24-152.1,152.1s68.23,152.1,152.1,152.1,152.1-68.23,152.1-152.1S381.51,313.44,297.64,313.44Z"/><path class="cls-2" d="M297.64,538.51c-89.38,0-162.1-72.72-162.1-162.1s72.72-162.1,162.1-162.1,162.1,72.72,162.1,162.1S387,538.51,297.64,538.51Zm0-314.2c-83.87,0-152.1,68.23-152.1,152.1s68.23,152.1,152.1,152.1,152.1-68.23,152.1-152.1S381.51,224.31,297.64,224.31Z"/></g><g class="cls-3"><circle class="cls-4" cx="297.64" cy="465.54" r="162.1" transform="translate(-242.01 346.82) rotate(-45)"/><circle class="cls-5" cx="297.64" cy="465.54" r="152.1" transform="translate(-242.01 346.82) rotate(-45)"/><circle class="cls-6" cx="297.64" cy="376.41" r="162.1" transform="translate(-178.99 320.71) rotate(-45)"/><circle class="cls-7" cx="297.64" cy="376.41" r="152.1" transform="translate(-178.99 320.71) rotate(-45)"/></g></g><g id="Capa_2" data-name="Capa 2"><g id="Capa_1-2" data-name="Capa 1"><path class="cls-8" d="M297.64,538.45A162,162,0,0,1,143.69,427.32v0a20.76,20.76,0,0,1,0-12.67,162.19,162.19,0,0,1,307.9,0,20.89,20.89,0,0,1,0,12.71A162,162,0,0,1,297.64,538.45ZM153.19,424.19a152.19,152.19,0,0,0,288.9,0,10.65,10.65,0,0,0,0-6.49,152.2,152.2,0,0,0-288.9,0A10.74,10.74,0,0,0,153.19,424.19Z"/><path class="cls-8" d="M297.64,471a50,50,0,1,1,49.9-50A50,50,0,0,1,297.64,471Zm0-90a40,40,0,1,0,39.9,40A40,40,0,0,0,297.64,380.94Z"/></g><line class="cls-9" x1="107.64" y1="645.94" x2="107.64" y2="195.94"/><line class="cls-10" x1="522.64" y1="610.94" x2="72.64" y2="610.94"/><line class="cls-11" x1="487.64" y1="195.94" x2="487.64" y2="645.94"/><line class="cls-12" x1="72.64" y1="230.94" x2="522.64" y2="230.94"/></g></svg>