<?xml version="1.0" encoding="utf-8"?>
<!-- Generator: Adobe Illustrator 25.4.1, SVG Export Plug-In . SVG Version: 6.00 Build 0)  -->
<svg version="1.1" xmlns="http://www.w3.org/2000/svg" xmlns:xlink="http://www.w3.org/1999/xlink" x="0px" y="0px"
	 viewBox="0 0 595.3 841.9" style="enable-background:new 0 0 595.3 841.9;" xml:space="preserve">
<style type="text/css">
	.st0{opacity:0.1;}
	.st1{fill:#FFFFFF;}
	.st2{opacity:0.5;}
	.st3{opacity:0.2;fill:none;stroke:#FFFFFF;stroke-linejoin:round;stroke-dasharray:4.01,4.01;}
	.st4{fill:none;stroke:url(#SVGID_1_);stroke-linecap:round;stroke-linejoin:round;enable-background:new    ;}
	
		.st5{fill:none;stroke:url(#SVGID_00000088842602198942835650000006617826356359241120_);stroke-linecap:round;stroke-linejoin:round;enable-background:new    ;}
	
		.st6{fill:none;stroke:url(#SVGID_00000157993153950404544820000013003510428987518114_);stroke-linecap:round;stroke-linejoin:round;enable-background:new    ;}
	
		.st7{fill:none;stroke:url(#SVGID_00000083061199001080427620000006205122638950933392_);stroke-linecap:round;stroke-linejoin:round;enable-background:new    ;}
	.st8{fill:none;stroke:#FFFFFF;stroke-miterlimit:10;}
</style>
<g id="Capa_2">
</g>
<g id="Capa_1">
	<g class="st0">
		<path class="st1" d="M297.6,471c-27.6,0.1-50-22.3-50.1-49.9s22.3-50,49.9-50.1s50,22.3,50.1,49.9v0.1
			C347.5,448.6,325.2,470.9,297.6,471z M297.6,381c-22.1-0.1-40,17.8-40.1,39.9s17.8,40,39.9,40.1s40-17.8,40.1-39.9V421
			C337.6,398.9,319.7,381,297.6,381L297.6,381z"/>
	</g>
	<g class="st0">
		<path class="st1" d="M297.6,627.6c-89.4,0-162.1-72.7-162.1-162.1s72.7-162.1,162.1-162.1s162.1,72.7,162.1,162.1
			S387,627.6,297.6,627.6z M297.6,313.4c-83.9,0-152.1,68.2-152.1,152.1s68.2,152.1,152.1,152.1s152.1-68.2,152.1-152.1
			S381.5,313.4,297.6,313.4z"/>
		<path class="st1" d="M297.6,538.5c-89.4,0-162.1-72.7-162.1-162.1s72.7-162.1,162.1-162.1S459.7,287,459.7,376.4
			S387,538.5,297.6,538.5z M297.6,224.3c-83.9,0-152.1,68.2-152.1,152.1s68.2,152.1,152.1,152.1s152.1-68.2,152.1-152.1
			S381.5,224.3,297.6,224.3z"/>
	</g>
	<g class="st2">
		<circle class="st3" cx="297.6" cy="465.5" r="162.1"/>
		<circle class="st3" cx="297.6" cy="465.5" r="152.1"/>
		<circle class="st3" cx="297.6" cy="376.4" r="162.1"/>
		<circle class="st3" cx="297.6" cy="376.4" r="152.1"/>
	</g>
	<g id="Capa_2_00000096754163867601323870000001423447074665372848_">
		
			<linearGradient id="SVGID_1_" gradientUnits="userSpaceOnUse" x1="107.6" y1="195.49" x2="107.6" y2="646.49" gradientTransform="matrix(1 0 0 -1 0 841.89)">
			<stop  offset="0" style="stop-color:#FFFFFF;stop-opacity:0"/>
			<stop  offset="0.5" style="stop-color:#FFFFFF;stop-opacity:0.2"/>
			<stop  offset="1" style="stop-color:#FFFFFF;stop-opacity:0"/>
		</linearGradient>
		<line class="st4" x1="107.6" y1="645.9" x2="107.6" y2="195.9"/>
		
			<linearGradient id="SVGID_00000149349160152579408840000010297003298898407592_" gradientUnits="userSpaceOnUse" x1="72.1" y1="230.99" x2="523.1" y2="230.99" gradientTransform="matrix(1 0 0 -1 0 841.89)">
			<stop  offset="0" style="stop-color:#FFFFFF;stop-opacity:0"/>
			<stop  offset="0.5" style="stop-color:#FFFFFF;stop-opacity:0.2"/>
			<stop  offset="1" style="stop-color:#FFFFFF;stop-opacity:0"/>
		</linearGradient>
		
			<line style="fill:none;stroke:url(#SVGID_00000149349160152579408840000010297003298898407592_);stroke-linecap:round;stroke-linejoin:round;enable-background:new    ;" x1="522.6" y1="610.9" x2="72.6" y2="610.9"/>
		
			<linearGradient id="SVGID_00000093137397312040053310000015920938139668563610_" gradientUnits="userSpaceOnUse" x1="487.6" y1="195.49" x2="487.6" y2="646.49" gradientTransform="matrix(1 0 0 -1 0 841.89)">
			<stop  offset="0" style="stop-color:#FFFFFF;stop-opacity:0"/>
			<stop  offset="0.5" style="stop-color:#FFFFFF;stop-opacity:0.2"/>
			<stop  offset="1" style="stop-color:#FFFFFF;stop-opacity:0"/>
		</linearGradient>
		
			<line style="fill:none;stroke:url(#SVGID_00000093137397312040053310000015920938139668563610_);stroke-linecap:round;stroke-linejoin:round;enable-background:new    ;" x1="487.6" y1="195.9" x2="487.6" y2="645.9"/>
		
			<linearGradient id="SVGID_00000033346926231825854030000000476005876510988417_" gradientUnits="userSpaceOnUse" x1="72.1" y1="610.99" x2="523.1" y2="610.99" gradientTransform="matrix(1 0 0 -1 0 841.89)">
			<stop  offset="0" style="stop-color:#FFFFFF;stop-opacity:0"/>
			<stop  offset="0.5" style="stop-color:#FFFFFF;stop-opacity:0.2"/>
			<stop  offset="1" style="stop-color:#FFFFFF;stop-opacity:0"/>
		</linearGradient>
		
			<line style="fill:none;stroke:url(#SVGID_00000033346926231825854030000000476005876510988417_);stroke-linecap:round;stroke-linejoin:round;enable-background:new    ;" x1="72.6" y1="230.9" x2="522.6" y2="230.9"/>
	</g>
	<g id="Capa_1-2">
		<path class="st8" d="M297.6,538.5c-69.9,0.1-132-44.7-154-111.1l0,0c-1.3-4.1-1.3-8.5,0-12.7c28.2-85,120-131.1,205-102.9
			c48.6,16.1,86.8,54.3,102.9,102.9c1.3,4.1,1.3,8.6,0,12.7C429.6,493.7,367.6,538.5,297.6,538.5z M153.2,424.2
			c26.5,79.8,112.6,123,192.4,96.5c45.6-15.1,81.4-50.9,96.5-96.5c0.7-2.1,0.7-4.4,0-6.5c-26.5-79.8-112.6-123-192.4-96.5
			c-45.6,15.1-81.4,50.9-96.5,96.5C152.5,419.8,152.5,422.1,153.2,424.2z"/>
		<path class="st8" d="M297.6,471c-27.6,0.1-50-22.3-50.1-49.9s22.3-50,49.9-50.1s50,22.3,50.1,49.9v0.1
			C347.5,448.6,325.2,470.9,297.6,471z M297.6,381c-22.1-0.1-40,17.8-40.1,39.9s17.8,40,39.9,40.1s40-17.8,40.1-39.9V421
			C337.6,398.9,319.7,381,297.6,381L297.6,381z"/>
	</g>
</g>
</svg>
