<?xml version="1.0" encoding="utf-8"?>
<!-- Generator: Adobe Illustrator 25.4.1, SVG Export Plug-In . SVG Version: 6.00 Build 0)  -->
<svg version="1.1" id="Capa_1" xmlns="http://www.w3.org/2000/svg" xmlns:xlink="http://www.w3.org/1999/xlink" x="0px" y="0px"
	 viewBox="0 0 595.3 841.9" style="enable-background:new 0 0 595.3 841.9;" xml:space="preserve">
<style type="text/css">
	.st0{opacity:0.3;}
	.st1{fill:#8C8C8C;}
	.st2{opacity:0.5;}
	.st3{fill:none;stroke:#8C8C8C;stroke-linejoin:round;stroke-dasharray:4.01,4.01;}
	.st4{opacity:0.5;fill:none;stroke:url(#SVGID_1_);stroke-linecap:round;stroke-linejoin:round;enable-background:new    ;}
	
		.st5{opacity:0.5;fill:none;stroke:url(#SVGID_00000163044205407320937940000011254048402259390106_);stroke-linecap:round;stroke-linejoin:round;enable-background:new    ;}
	
		.st6{opacity:0.5;fill:none;stroke:url(#SVGID_00000106857211308708299360000001856490008892768411_);stroke-linecap:round;stroke-linejoin:round;enable-background:new    ;}
	
		.st7{opacity:0.5;fill:none;stroke:url(#SVGID_00000161605549582201968060000005789397741393535906_);stroke-linecap:round;stroke-linejoin:round;enable-background:new    ;}
	.st8{fill:none;stroke:#4FD1C5;stroke-miterlimit:10;}
</style>
<g id="Capa_1_00000023270248109853096680000009213172537559206830_">
	<g class="st0">
		<path class="st1" d="M297.6,471c-27.6,0.1-50-22.3-50.1-49.9s22.3-50,49.9-50.1s50,22.3,50.1,49.9v0.1
			C347.5,448.6,325.2,470.9,297.6,471z M297.6,381c-22.1-0.1-40,17.8-40.1,39.9s17.8,40,39.9,40.1s40-17.8,40.1-39.9V421
			C337.6,398.9,319.7,381,297.6,381L297.6,381z"/>
	</g>
	<g class="st0">
		<path class="st1" d="M297.6,627.6c-89.4,0-162.1-72.7-162.1-162.1s72.7-162.1,162.1-162.1s162.1,72.7,162.1,162.1
			S387,627.6,297.6,627.6z M297.6,313.4c-83.9,0-152.1,68.2-152.1,152.1s68.2,152.1,152.1,152.1s152.1-68.2,152.1-152.1
			S381.5,313.4,297.6,313.4z"/>
		<path class="st1" d="M297.6,538.5c-89.4,0-162.1-72.7-162.1-162.1s72.7-162.1,162.1-162.1S459.7,287,459.7,376.4
			S387,538.5,297.6,538.5z M297.6,224.3c-83.9,0-152.1,68.2-152.1,152.1s68.2,152.1,152.1,152.1s152.1-68.2,152.1-152.1
			S381.5,224.3,297.6,224.3z"/>
	</g>
	<g class="st2">
		<circle class="st3" cx="297.6" cy="465.5" r="162.1"/>
		<circle class="st3" cx="297.6" cy="465.5" r="152.1"/>
		<circle class="st3" cx="297.6" cy="376.4" r="162.1"/>
		<circle class="st3" cx="297.6" cy="376.4" r="152.1"/>
	</g>
</g>
<g id="Capa_2_00000096754163867601323870000001423447074665372848_">
	<linearGradient id="SVGID_1_" gradientUnits="userSpaceOnUse" x1="107.6" y1="646.4" x2="107.6" y2="195.4">
		<stop  offset="0" style="stop-color:#FFFFFF"/>
		<stop  offset="2.000000e-02" style="stop-color:#F4F4F4"/>
		<stop  offset="7.000000e-02" style="stop-color:#D4D4D4"/>
		<stop  offset="0.13" style="stop-color:#BABABA"/>
		<stop  offset="0.19" style="stop-color:#A5A5A5"/>
		<stop  offset="0.27" style="stop-color:#979797"/>
		<stop  offset="0.35" style="stop-color:#8F8F8F"/>
		<stop  offset="0.5" style="stop-color:#8C8C8C"/>
		<stop  offset="0.65" style="stop-color:#8F8F8F"/>
		<stop  offset="0.73" style="stop-color:#979797"/>
		<stop  offset="0.81" style="stop-color:#A5A5A5"/>
		<stop  offset="0.87" style="stop-color:#BABABA"/>
		<stop  offset="0.93" style="stop-color:#D4D4D4"/>
		<stop  offset="0.98" style="stop-color:#F4F4F4"/>
		<stop  offset="1" style="stop-color:#FFFFFF"/>
	</linearGradient>
	<line class="st4" x1="107.6" y1="645.9" x2="107.6" y2="195.9"/>
	
		<linearGradient id="SVGID_00000176735783225366896980000010603549089967443855_" gradientUnits="userSpaceOnUse" x1="72.1" y1="610.9" x2="523.1" y2="610.9">
		<stop  offset="0" style="stop-color:#FFFFFF"/>
		<stop  offset="2.000000e-02" style="stop-color:#F4F4F4"/>
		<stop  offset="7.000000e-02" style="stop-color:#D4D4D4"/>
		<stop  offset="0.13" style="stop-color:#BABABA"/>
		<stop  offset="0.19" style="stop-color:#A5A5A5"/>
		<stop  offset="0.27" style="stop-color:#979797"/>
		<stop  offset="0.35" style="stop-color:#8F8F8F"/>
		<stop  offset="0.5" style="stop-color:#8C8C8C"/>
		<stop  offset="0.65" style="stop-color:#8F8F8F"/>
		<stop  offset="0.73" style="stop-color:#979797"/>
		<stop  offset="0.81" style="stop-color:#A5A5A5"/>
		<stop  offset="0.87" style="stop-color:#BABABA"/>
		<stop  offset="0.93" style="stop-color:#D4D4D4"/>
		<stop  offset="0.98" style="stop-color:#F4F4F4"/>
		<stop  offset="1" style="stop-color:#FFFFFF"/>
	</linearGradient>
	
		<line style="opacity:0.5;fill:none;stroke:url(#SVGID_00000176735783225366896980000010603549089967443855_);stroke-linecap:round;stroke-linejoin:round;enable-background:new    ;" x1="522.6" y1="610.9" x2="72.6" y2="610.9"/>
	
		<linearGradient id="SVGID_00000098912203986979851630000011883365062835510934_" gradientUnits="userSpaceOnUse" x1="487.6" y1="646.4" x2="487.6" y2="195.4">
		<stop  offset="0" style="stop-color:#FFFFFF"/>
		<stop  offset="2.000000e-02" style="stop-color:#F4F4F4"/>
		<stop  offset="7.000000e-02" style="stop-color:#D4D4D4"/>
		<stop  offset="0.13" style="stop-color:#BABABA"/>
		<stop  offset="0.19" style="stop-color:#A5A5A5"/>
		<stop  offset="0.27" style="stop-color:#979797"/>
		<stop  offset="0.35" style="stop-color:#8F8F8F"/>
		<stop  offset="0.5" style="stop-color:#8C8C8C"/>
		<stop  offset="0.65" style="stop-color:#8F8F8F"/>
		<stop  offset="0.73" style="stop-color:#979797"/>
		<stop  offset="0.81" style="stop-color:#A5A5A5"/>
		<stop  offset="0.87" style="stop-color:#BABABA"/>
		<stop  offset="0.93" style="stop-color:#D4D4D4"/>
		<stop  offset="0.98" style="stop-color:#F4F4F4"/>
		<stop  offset="1" style="stop-color:#FFFFFF"/>
	</linearGradient>
	
		<line style="opacity:0.5;fill:none;stroke:url(#SVGID_00000098912203986979851630000011883365062835510934_);stroke-linecap:round;stroke-linejoin:round;enable-background:new    ;" x1="487.6" y1="195.9" x2="487.6" y2="645.9"/>
	
		<linearGradient id="SVGID_00000140705280821718683160000003176393703605665200_" gradientUnits="userSpaceOnUse" x1="72.1" y1="230.9" x2="523.1" y2="230.9">
		<stop  offset="0" style="stop-color:#FFFFFF"/>
		<stop  offset="2.000000e-02" style="stop-color:#F4F4F4"/>
		<stop  offset="7.000000e-02" style="stop-color:#D4D4D4"/>
		<stop  offset="0.13" style="stop-color:#BABABA"/>
		<stop  offset="0.19" style="stop-color:#A5A5A5"/>
		<stop  offset="0.27" style="stop-color:#979797"/>
		<stop  offset="0.35" style="stop-color:#8F8F8F"/>
		<stop  offset="0.5" style="stop-color:#8C8C8C"/>
		<stop  offset="0.65" style="stop-color:#8F8F8F"/>
		<stop  offset="0.73" style="stop-color:#979797"/>
		<stop  offset="0.81" style="stop-color:#A5A5A5"/>
		<stop  offset="0.87" style="stop-color:#BABABA"/>
		<stop  offset="0.93" style="stop-color:#D4D4D4"/>
		<stop  offset="0.98" style="stop-color:#F4F4F4"/>
		<stop  offset="1" style="stop-color:#FFFFFF"/>
	</linearGradient>
	
		<line style="opacity:0.5;fill:none;stroke:url(#SVGID_00000140705280821718683160000003176393703605665200_);stroke-linecap:round;stroke-linejoin:round;enable-background:new    ;" x1="72.6" y1="230.9" x2="522.6" y2="230.9"/>
</g>
<g id="Capa_1-2">
	<path class="st8" d="M297.6,538.5c-69.9,0.1-132-44.7-154-111.1l0,0c-1.3-4.1-1.3-8.5,0-12.7c28.2-85,120-131.1,205-102.9
		c48.6,16.1,86.8,54.3,102.9,102.9c1.3,4.1,1.3,8.6,0,12.7C429.6,493.7,367.6,538.5,297.6,538.5z M153.2,424.2
		c26.5,79.8,112.6,123,192.4,96.5c45.6-15.1,81.4-50.9,96.5-96.5c0.7-2.1,0.7-4.4,0-6.5c-26.5-79.8-112.6-123-192.4-96.5
		c-45.6,15.1-81.4,50.9-96.5,96.5C152.5,419.8,152.5,422.1,153.2,424.2z"/>
	<path class="st8" d="M297.6,471c-27.6,0.1-50-22.3-50.1-49.9s22.3-50,49.9-50.1s50,22.3,50.1,49.9v0.1
		C347.5,448.6,325.2,470.9,297.6,471z M297.6,381c-22.1-0.1-40,17.8-40.1,39.9s17.8,40,39.9,40.1s40-17.8,40.1-39.9V421
		C337.6,398.9,319.7,381,297.6,381L297.6,381z"/>
</g>
</svg>
