<?xml version="1.0" encoding="utf-8"?>
<!-- Generator: Adobe Illustrator 25.4.1, SVG Export Plug-In . SVG Version: 6.00 Build 0)  -->
<svg version="1.1" id="Capa_1" xmlns="http://www.w3.org/2000/svg" xmlns:xlink="http://www.w3.org/1999/xlink" x="0px" y="0px"
	 viewBox="0 0 230 230" style="enable-background:new 0 0 230 230;" xml:space="preserve">
<style type="text/css">
	.st0{fill:#990066;}
</style>
<g>
	<path class="st0" d="M226.7,161.4c-0.9,18-5,34-18.2,47.1c-13.1,13.2-29.1,17.3-47.1,18.2c-18.6,1.1-74.2,1.1-92.8,0
		c-18-0.9-33.9-5-47.1-18.2C8.3,195.4,4.1,179.4,3.3,161.4c-1.1-18.6-1.1-74.3,0-92.8c0.9-18,5-34,18.2-47.1
		C34.7,8.3,50.6,4.1,68.6,3.3c18.6-1.1,74.2-1.1,92.8,0c18,0.9,34,5,47.1,18.2c13.2,13.2,17.3,29.1,18.2,47.1
		C227.8,87.2,227.8,142.8,226.7,161.4z M207.2,115c0-16.4,1.4-51.5-4.5-66.3c-4-9.9-11.5-17.5-21.4-21.4
		c-14.8-5.8-49.9-4.5-66.3-4.5s-51.5-1.4-66.3,4.5c-9.9,4-17.5,11.5-21.4,21.4c-5.8,14.8-4.5,50-4.5,66.3s-1.4,51.5,4.5,66.3
		c4,9.9,11.5,17.5,21.4,21.4c14.8,5.8,49.9,4.5,66.3,4.5s51.5,1.4,66.3-4.5c9.9-4,17.5-11.5,21.4-21.4
		C208.6,166.6,207.2,131.4,207.2,115z M172.7,115c0,31.9-25.8,57.7-57.7,57.7S57.4,146.9,57.4,115S83.1,57.3,115,57.3
		S172.7,83.1,172.7,115z M152.5,115c0-20.7-16.8-37.5-37.5-37.5S77.5,94.3,77.5,115s16.9,37.5,37.5,37.5S152.5,135.7,152.5,115z
		 M175.1,68.4c-7.5,0-13.5-6-13.5-13.5c0-7.4,6-13.5,13.5-13.5s13.5,6,13.5,13.5C188.5,62.4,182.5,68.4,175.1,68.4z"/>
</g>
</svg>
