<?xml version="1.0" encoding="utf-8"?>
<!-- Generator: Adobe Illustrator 25.4.1, SVG Export Plug-In . SVG Version: 6.00 Build 0)  -->
<svg version="1.1" id="Capa_1" xmlns="http://www.w3.org/2000/svg" xmlns:xlink="http://www.w3.org/1999/xlink" x="0px" y="0px"
	 viewBox="0 0 400 400" style="enable-background:new 0 0 400 400;" xml:space="preserve">
<style type="text/css">
	.st0{fill:#FFB700;}
	.st1{fill-rule:evenodd;clip-rule:evenodd;fill:#FFFFFF;}
	.st2{fill:#FFFFFF;}
</style>
<g>
	<path class="st0" d="M305,131.1c-1.5,0-3,0.5-4.2,1.5l-30.4,24.1l-30.4-24.1c-1.5-1.2-3.2-1.7-5-1.5c-0.2,0-0.2,0-0.5,0
		c-1.5,0-3,0.5-4.2,1.5L200,157l-30.4-24.1c-0.2-0.2-0.7-0.5-1.2-0.7c-0.2-0.2-0.7-0.2-1-0.5h-0.2c-0.7-0.2-1.7-0.2-2.5-0.2
		c-0.2,0-0.2,0-0.5,0c-1.5,0-3,0.5-4.2,1.5L129.6,157l-30.4-24.1c-3-2.5-7.5-2-9.7,1c-1,1.2-1.5,2.7-1.5,4.2v107
		c0,3.2,1.2,6.7,3.5,9.2c2.2,2.5,5.7,4,9.2,4l85.9,10c9,1,17.9,1,26.9,0l85.9-10c3.5,0,6.7-1.5,9.2-4c2.2-2.5,3.5-5.7,3.5-9.2v-107
		C312,134.1,309,131.1,305,131.1z"/>
	<g>
		<g>
			<path class="st1" d="M-341.1,104.4c0-2-1.4-3.7-3.4-4c-26.2-4.2-52.7-5.5-87.6-4.9c-19.1,0.3-34.5,16-34.4,35.1v193.8
				c0,20,16.5,35.6,36,35.4c33.4-0.5,58.4,1,84.8,5.6c2.5,0.4,4.7-1.5,4.7-4v-257H-341.1z"/>
			<path class="st1" d="M-183.9,95.5c-34.9-0.6-61.4,0.7-87.6,4.9c-1.9,0.3-3.4,2-3.4,4v257c0,2.5,2.2,4.4,4.7,4
				c26.4-4.6,51.3-6.1,84.8-5.6c19.6,0.3,35.7-15.3,36-34.9c0-0.2,0-0.3,0-0.5V130.6C-149.4,111.5-164.8,95.9-183.9,95.5z"/>
		</g>
		<path class="st2" d="M-290.1,104c2.2,0,4,1.8,4,4v257.3c0,1.9-1.3,3.5-3.1,3.9c-1.9,0.4-3.8,0.8-5.7,1.3c-4.3,1-8.7,1.5-13.1,1.5
			c-4.4,0-8.8-0.5-13.1-1.5c-1.9-0.4-3.8-0.9-5.7-1.3c-1.8-0.4-3.1-2-3.1-3.9V108c0-2.3,1.9-4,4-4c0.3,0,0.6,0,0.9,0.1
			c1.3,0.3,2.5,0.5,3.8,0.8c4.4,1,8.8,1.5,13.3,1.5s8.9-0.5,13.3-1.5c1.3-0.3,2.5-0.6,3.8-0.8C-290.6,104-290.3,104-290.1,104"/>
	</g>
</g>
</svg>
