<?xml version="1.0" encoding="utf-8"?>
<!-- Generator: Adobe Illustrator 25.4.1, SVG Export Plug-In . SVG Version: 6.00 Build 0)  -->
<svg version="1.1" id="Capa_1" xmlns="http://www.w3.org/2000/svg" xmlns:xlink="http://www.w3.org/1999/xlink" x="0px" y="0px"
	 viewBox="0 0 508.1 100" style="enable-background:new 0 0 508.1 100;" xml:space="preserve">
<style type="text/css">
	.st0{fill:#FFFFFF;}
	.st1{fill:#FFB700;}
</style>
<g>
	<g>
		<g>
			<path class="st0" d="M59.2,47.5c8.5,1.5,14.3,7.2,14.3,14.4c0,8.5-8,14.8-19,14.8H16.9v-1.4c2.4,0,4.3-2.4,4.3-5.9V30.6
				c0-3.4-1.9-5.9-4.3-5.9v-1.4h33.2c12.9,0,21.3,5,21.3,12.6C71.4,41.5,66.9,45.7,59.2,47.5z M42.9,47.1c6,0,9.9-4.4,9.9-11.2
				S49,24.7,42.9,24.7h-3.2v22.4H42.9z M54.4,61.9c0-7.8-4.2-13.4-9.9-13.4h-4.7v26.8h4.7C50.2,75.3,54.4,69.6,54.4,61.9z"/>
			<path class="st0" d="M104.2,77.9c-16.1,0-27.9-11.7-27.9-27.9c0-16.1,11.7-27.9,27.9-27.9c16.1,0,27.9,11.7,27.9,27.9
				C132.1,66.1,120.4,77.9,104.2,77.9z M104.2,76.5c6.9,0,8.7-11.2,8.7-26.5s-1.8-26.5-8.7-26.5S95.6,34.7,95.6,50
				S97.4,76.5,104.2,76.5z"/>
			<path class="st0" d="M162.8,77.9c-16.1,0-27.9-11.7-27.9-27.9c0-16.1,11.7-27.9,27.9-27.9c16.1,0,27.9,11.7,27.9,27.9
				C190.7,66.1,179,77.9,162.8,77.9z M162.8,76.5c6.9,0,8.7-11.2,8.7-26.5s-1.8-26.5-8.7-26.5s-8.7,11.2-8.7,26.5
				S156,76.5,162.8,76.5z"/>
			<path class="st0" d="M215.3,51.1l20.1-20.4c3.1-3.1,4-5.9,1.7-5.9v-1.4h10.5v1.4c-2.4,0-6.9,2.6-10.4,6.1l-8.8,8.9l19,30.2
				c2,3.1,5,5.4,7,5.4v1.4h-13.6c-10.1,0-13.6-4-17.9-11L215.3,53v16.4c0,3.4,1.9,5.9,4.3,5.9v1.4h-27.1v-1.4c2.4,0,4.3-2.4,4.3-5.9
				V30.6c0-3.4-1.9-5.9-4.3-5.9v-1.4h27.1v1.4c-2.4,0-4.3,2.4-4.3,5.9V51.1z"/>
			<path class="st0" d="M277.5,69.4c0,3.4,1.9,5.9,4.3,5.9v1.4h-27.1v-1.4c2.4,0,4.3-2.4,4.3-5.9V30.6c0-3.4-1.9-5.9-4.3-5.9v-1.4
				h27.1v1.4c-2.4,0-4.3,2.4-4.3,5.9L277.5,69.4L277.5,69.4z"/>
			<path class="st0" d="M326,47.2V30.7c0-3.4-1.9-5.9-4.3-5.9v-1.4h9.9v1.4c-2.4,0-4.3,2.4-4.3,5.9v46.1H326l-35.9-46.6l-0.5-0.7
				c-0.1,0.4-0.1,0.8-0.1,1.1v38.8c0,3.4,1.9,5.9,4.3,5.9v1.4h-9.9v-1.4c2.4,0,4.3-2.4,4.3-5.9V30.6c0-2.1-0.7-3.8-1.8-4.9
				c-0.8-0.6-1.5-1-2.4-1v-1.4h16.7c6.4,0,10.7,4.3,15.8,11L326,47.2z"/>
			<path class="st0" d="M361.6,77.9C344.7,77.9,333,66.1,333,50s11.7-27.9,29.4-27.9c11.1,0,20.3,4.6,20.3,10.1
				c0,2.1-1.7,3.8-3.8,3.8c-8.2,0-8.3-12.5-16.4-12.5c-8.4,0-10.2,11.2-10.2,21.9c0,15.9,5.5,26.3,14,28.7V54.3
				c0-3.4-1.9-5.9-4.3-5.9V47h27.1v1.4c-2.4,0-4.3,2.4-4.3,5.9v22.3h-1.4c-0.8-1.8-1.6-3-3.5-3C376.3,73.6,372.2,77.9,361.6,77.9z"
				/>
		</g>
	</g>
</g>
<path class="st1" d="M483.7,27.4c-0.5,0-1.1,0.2-1.5,0.5l-10.9,8.6l-10.9-8.6c-0.5-0.4-1.1-0.6-1.8-0.5c-0.1,0-0.1,0-0.2,0
	c-0.5,0-1.1,0.2-1.5,0.5l-10.8,8.7L435.3,28c-0.1-0.1-0.2-0.2-0.4-0.2c-0.1-0.1-0.2-0.1-0.4-0.2h-0.1c-0.2-0.1-0.6-0.1-0.9-0.1
	c-0.1,0-0.1,0-0.2,0c-0.5,0-1.1,0.2-1.5,0.5l-10.9,8.6L410.2,28c-1.1-0.9-2.7-0.7-3.5,0.4c-0.4,0.4-0.5,1-0.5,1.5v38.2
	c0,1.1,0.4,2.4,1.2,3.3c0.8,0.9,2,1.4,3.3,1.4l30.7,3.6c3.2,0.4,6.4,0.4,9.6,0l30.7-3.6c1.2,0,2.4-0.5,3.3-1.4
	c0.8-0.9,1.2-2,1.2-3.3V29.9C486.2,28.5,485.1,27.4,483.7,27.4z"/>
</svg>
