<?xml version="1.0" encoding="utf-8"?>
<!-- Generator: Adobe Illustrator 25.4.1, SVG Export Plug-In . SVG Version: 6.00 Build 0)  -->
<svg version="1.1" id="Capa_1" xmlns="http://www.w3.org/2000/svg" xmlns:xlink="http://www.w3.org/1999/xlink" x="0px" y="0px"
	 viewBox="0 0 230 230" style="enable-background:new 0 0 230 230;" xml:space="preserve">
<style type="text/css">
	.st0{fill:#FFFFFF;}
</style>
<path class="st0" d="M227.4,114.9c0,18.8,0.2,37.7-0.1,56.5c-0.1,7.2-0.4,14.6-1.8,21.7c-3.6,17.4-17.5,30.4-35,33.2
	c-6.5,1-13.2,1.2-19.8,1.2c-36.6,0.1-73.2,0.1-109.7,0c-8.6,0-17.2,0-25.7-2.2c-16.8-4.4-29.6-18.9-31.6-36.1
	c-0.7-6.1-1.1-12.3-1.1-18.5c-0.1-35.5-0.1-71,0-106.5c0-7.5,0.2-15.1,1-22.5c1.9-18.3,15-32.9,33.1-37.2c3.6-0.9,7.3-1.2,11-1.5
	c5.3-0.3,10.6-0.4,15.9-0.4c35.7,0,71.5-0.1,107.2,0.1c7.4,0,14.9,0,22.3,1.8c18.2,4.3,31.2,18.7,33.4,37.2c0.7,6.2,1,12.5,1,18.7
	C227.6,78.5,227.5,96.7,227.4,114.9C227.5,114.9,227.5,114.9,227.4,114.9z M118.7,104.9c0-3.8-0.1-7.1,0-10.5c0-1.5-0.4-2.2-2-2.1
	c-7.3,0.1-14.7,0.1-22,0c-1.7,0-2.1,0.6-2.1,2.2c0,28.8,0,57.6,0,86.4c0,0.7,0.1,1.3,0.1,2.1c0.8,0.1,1.5,0.1,2.1,0.1
	c7.7,0,15.4-0.1,23.2,0c1.9,0,2.4-0.6,2.3-2.4c-0.1-12.4-0.1-24.9,0-37.3c0-3.5-0.2-7,0.1-10.5c0.7-7.4,4.7-14.5,14.1-16.1
	c6-1,11.6-0.2,16.2,4.3c3.4,3.4,4.5,7.8,4.5,12.5c0,15.8,0,31.5-0.1,47.3c0,1.7,0.4,2.3,2.2,2.3c7.9-0.1,15.8-0.1,23.7,0
	c1.6,0,1.9-0.6,1.9-2c0-19,0.1-37.9-0.1-56.9c-0.1-8.6-3.1-16.7-9-22.8c-10.2-10.7-23-13-37-8.9C129.6,94.6,123.6,98.7,118.7,104.9z
	 M77.5,182.9c0-1,0-1.9,0-2.8c0-24.1,0-48.2,0-72.4c0-4.5,0-9.1,0-13.6c0-1.3-0.3-1.8-1.7-1.8c-8.4,0-16.7,0-25.1,0
	c-1.3,0-1.7,0.4-1.7,1.7c0.1,2.2,0,4.5,0,6.7c0,26.6,0,53.2,0,79.8c0,2.6,0,2.6,2.6,2.6c7.7,0,15.4,0,23.2,0
	C75.7,183.1,76.5,183,77.5,182.9z M79.5,63.1c0-8.9-7.1-16.2-15.9-16.2c-9.2-0.1-16.5,7.2-16.5,16.3c0,8.8,7.4,16.2,16.3,16.2
	C72.2,79.4,79.5,72.1,79.5,63.1z"/>
</svg>
