<?xml version="1.0" encoding="utf-8"?>
<!-- Generator: Adobe Illustrator 25.4.1, SVG Export Plug-In . SVG Version: 6.00 Build 0)  -->
<svg version="1.1" id="Capa_1" xmlns="http://www.w3.org/2000/svg" xmlns:xlink="http://www.w3.org/1999/xlink" x="0px" y="0px"
	 viewBox="0 0 400 400" style="enable-background:new 0 0 400 400;" xml:space="preserve">
<style type="text/css">
	.st0{fill:#00ABD9;}
</style>
<g>
	<g>
		<path class="st0" d="M242.5,308h-119c-17.4,0-31.5-14.1-31.5-31.5v-119c0-17.4,14.1-31.5,31.5-31.5H217c3.3,0,6,2.7,6,6
			s-2.7,6-6,6h-93.5c-10.8,0-19.5,8.7-19.5,19.5v119c0,10.8,8.7,19.5,19.5,19.5h119c10.8,0,19.5-8.7,19.5-19.5V183c0-3.3,2.7-6,6-6
			s6,2.7,6,6v93.5C274,293.9,259.9,308,242.5,308z M149,257c-1.5,0-3.1-0.6-4.2-1.8c-2.3-2.3-2.3-6.1,0-8.5L287.5,104h-45
			c-3.3,0-6-2.7-6-6s2.7-6,6-6H302c0.8,0,1.6,0.2,2.3,0.5c0.7,0.3,1.3,0.7,1.8,1.2c0.1,0.1,0.1,0.1,0.2,0.2c0.5,0.6,0.9,1.2,1.2,1.8
			c0.3,0.7,0.5,1.5,0.5,2.3v59.5c0,3.3-2.7,6-6,6s-6-2.7-6-6v-45L153.2,255.2C152.1,256.4,150.5,257,149,257z"/>
	</g>
</g>
</svg>
