<?xml version="1.0" encoding="utf-8"?>
<!-- Generator: Adobe Illustrator 25.4.1, SVG Export Plug-In . SVG Version: 6.00 Build 0)  -->
<svg version="1.1" id="Capa_1" xmlns="http://www.w3.org/2000/svg" xmlns:xlink="http://www.w3.org/1999/xlink" x="0px" y="0px"
	 viewBox="0 0 400 400" style="enable-background:new 0 0 400 400;" xml:space="preserve">
<style type="text/css">
	.st0{fill:#5D2784;}
	.st1{fill:#FFB700;}
	.st2{fill-rule:evenodd;clip-rule:evenodd;fill:#6E11B0;}
	.st3{fill:#6E11B0;}
</style>
<g>
	<path class="st0" d="M117.5,278.8c2.6,0,5.1-1.1,7-3l39.1-39c28.2,21.3,68.7,18.8,94.1-6.6c28-28,28-73.6,0-101.7
		c-13.6-13.6-31.6-21.1-50.8-21.1s-37.3,7.5-50.8,21.1c-25.4,25.4-27.9,65.8-6.6,94.1l-39,39c-1.9,1.9-3,4.4-3,7.1
		c0,2.6,1,5.1,2.9,7C112.2,277.7,114.8,278.8,117.5,278.8z M243.6,216.1c-20,19.9-52.4,20.1-72.7,0.7l-0.1-0.2l-0.6-0.6
		c-20.2-20.2-20.2-53.1,0-73.3c9.7-9.8,22.7-15.2,36.6-15.2c13.8,0,26.8,5.4,36.7,15.2C263.8,162.9,263.8,195.8,243.6,216.1z
		 M117.5,273.8L117.5,273.8L117.5,273.8L117.5,273.8L117.5,273.8z"/>
	<path class="st0" d="M200,25c-96.5,0-175,78.5-175,175s78.5,175,175,175s175-78.5,175-175S296.5,25,200,25z M200,45
		c85.5,0,155,69.5,155,155s-69.5,155-155,155S45,285.5,45,200S114.5,45,200,45z"/>
</g>
<g>
	<path class="st1" d="M-290.7,0c-0.7,0-1.3,0.2-1.9,0.7l-13.1,10.5l-13.1-10.5c-0.6-0.5-1.4-0.7-2.2-0.6c-0.1,0-0.1,0-0.2,0
		c-0.7,0-1.3,0.2-1.9,0.7L-336,11.1l-13.1-10.5c-0.2-0.1-0.3-0.2-0.5-0.3c-0.1-0.1-0.3-0.1-0.4-0.2h-0.1c-0.4-0.1-0.7-0.1-1.1-0.1
		c-0.1,0-0.1,0-0.2,0c-0.7,0-1.3,0.2-1.9,0.7l-13.1,10.5l-13.1-10.5c-1.3-1-3.2-0.8-4.2,0.5c-0.4,0.5-0.7,1.2-0.7,1.9v46.1
		c0,1.4,0.5,2.8,1.5,3.9c1,1.1,2.4,1.7,3.9,1.7l37,4.3c3.9,0.5,7.8,0.5,11.6,0l37-4.3c1.5,0,2.9-0.6,3.9-1.7c1-1.1,1.5-2.5,1.5-3.9
		V3C-287.8,1.3-289.1,0-290.7,0z"/>
	<g>
		<g>
			<path class="st2" d="M-369.1,68.4c0-2-1.4-3.7-3.4-4c-26.2-4.2-52.7-5.5-87.6-4.9c-19.1,0.3-34.5,16-34.4,35.1v193.8
				c0,20,16.5,35.6,36,35.4c33.4-0.5,58.4,1,84.8,5.6c2.5,0.4,4.7-1.5,4.7-4v-257H-369.1z"/>
			<path class="st2" d="M-211.9,59.5c-34.9-0.6-61.4,0.7-87.6,4.9c-1.9,0.3-3.4,2-3.4,4v257c0,2.5,2.2,4.4,4.7,4
				c26.4-4.6,51.3-6.1,84.8-5.6c19.6,0.3,35.7-15.3,36-34.9c0-0.2,0-0.3,0-0.5V94.6C-177.4,75.5-192.8,59.9-211.9,59.5z"/>
		</g>
		<path class="st3" d="M-318.1,68c2.2,0,4,1.8,4,4v257.3c0,1.9-1.3,3.5-3.1,3.9c-1.9,0.4-3.8,0.8-5.7,1.3c-4.3,1-8.7,1.5-13.1,1.5
			s-8.8-0.5-13.1-1.5c-1.9-0.4-3.8-0.9-5.7-1.3c-1.8-0.4-3.1-2-3.1-3.9V72c0-2.3,1.9-4,4-4c0.3,0,0.6,0,0.9,0.1
			c1.3,0.3,2.5,0.5,3.8,0.8c4.4,1,8.8,1.5,13.3,1.5s8.9-0.5,13.3-1.5c1.3-0.3,2.5-0.6,3.8-0.8C-318.6,68-318.3,68-318.1,68"/>
	</g>
</g>
</svg>
