<?xml version="1.0" encoding="utf-8"?>
<!-- Generator: Adobe Illustrator 25.4.1, SVG Export Plug-In . SVG Version: 6.00 Build 0)  -->
<svg version="1.1" id="Capa_1" xmlns="http://www.w3.org/2000/svg" xmlns:xlink="http://www.w3.org/1999/xlink" x="0px" y="0px"
	 viewBox="0 0 350 585" style="enable-background:new 0 0 350 585;" xml:space="preserve">
<style type="text/css">
	.st0{fill:#FF6633;}
	.st1{opacity:0.5;fill:#FF6633;}
</style>
<g>
	<g>
		<g>
			<path class="st0" d="M175,49c-19.7,0-38.1,6-53.3,16.2c-2.8,1.8-3.5,5.5-1.7,8.3c1.8,2.7,5.5,3.4,8.3,1.6
				C141.7,66.2,157.7,61,175,61c46.4,0,84,37.6,84,84v60c0,20-7,38.4-18.6,52.8c-2.1,2.5-1.7,6.3,0.9,8.4c2.5,2.1,6.3,1.7,8.4-0.9
				C263,248.9,271,227.9,271,205v-60C271,92,228,49,175,49z"/>
		</g>
		<g>
			<path class="st0" d="M221.7,274.9c-13.4,8.9-29.4,14.1-46.7,14.1c-46.4,0-84-37.6-84-84v-60c0-20,7-38.4,18.7-52.8
				c2.1-2.5,1.7-6.3-0.9-8.4c-2.6-2.1-6.4-1.7-8.5,0.9C87,101.1,79,122.1,79,145v60c0,53,43,96,96,96c19.7,0,38.1-6,53.4-16.2
				c2.7-1.8,3.4-5.6,1.6-8.3S224.5,273.1,221.7,274.9z"/>
		</g>
		<g>
			<path class="st0" d="M197.1,82.7L197.1,82.7c-7.2-2.4-14.6-3.7-22.1-3.7c-36.5,0-66,29.5-66,66v60c0,19.5,8.5,37.1,22,49.2
				c2.5,2.2,6.2,2,8.5-0.4c2.2-2.5,2-6.2-0.4-8.5c0,0,0,0-0.1-0.1c-11.1-9.9-18-24.3-18-40.3v-60c0-29.8,24.2-54,54-54
				c6.1,0,12.2,1,18,3.1c3.1,1.1,6.6-0.5,7.7-3.6C201.8,87.3,200.2,83.8,197.1,82.7z"/>
		</g>
		<g>
			<path class="st0" d="M152.9,267.3L152.9,267.3c7.2,2.5,14.6,3.8,22.1,3.8c36.5,0,66-29.5,66-66v-60c0-19.6-8.5-37.2-22-49.3
				c-2.5-2.2-6.2-2-8.5,0.4c-2.2,2.5-2,6.2,0.4,8.5c0,0,0,0,0.1,0.1c11.1,9.9,18,24.3,18,40.3v60c0,29.8-24.2,54-54,54
				c-6.1,0-12.2-1-18-3.1c-3.1-1.1-6.6,0.5-7.7,3.6C148.2,262.7,149.8,266.2,152.9,267.3z"/>
		</g>
		<g>
			<path class="st0" d="M175,109c-19.9,0-36,16.1-36,36v30c0,3.3,2.7,6,6,6s6-2.7,6-6v-30c0-13.3,10.7-24,24-24s24,10.7,24,24
				c0,3.3,2.7,6,6,6s6-2.7,6-6C211,125.1,194.9,109,175,109z"/>
		</g>
		<g>
			<path class="st0" d="M151,205c0-3.3-2.7-6-6-6s-6,2.7-6,6c0,19.9,16.1,36,36,36s36-16.1,36-36v-30c0-3.3-2.7-6-6-6s-6,2.7-6,6v30
				c0,13.3-10.7,24-24,24S151,218.3,151,205z"/>
		</g>
		<g>
			<path class="st0" d="M181,205v-60c0-3.3-2.7-6-6-6s-6,2.7-6,6v60c0,3.3,2.7,6,6,6S181,208.3,181,205z"/>
		</g>
	</g>
	<g>
		<g>
			<g>
				<path class="st0" d="M175,0C78.4,0,0,78.4,0,174.9s78.4,174.9,175,174.9s175-78.4,175-174.9S271.6,0,175,0z M291.7,291.6
					c-31.2,31.1-72.6,48.3-116.7,48.3s-85.5-17.2-116.7-48.3C27.2,260.4,10,219,10,174.9S27.2,89.5,58.3,58.3
					C89.5,27.2,130.9,10,175,10s85.5,17.2,116.7,48.3S340,130.8,340,174.9S322.8,260.4,291.7,291.6z"/>
			</g>
		</g>
		<path class="st1" d="M345.5,208.2l-11,9.1c-7.4,27.8-22,53.3-42.8,74.2c-28.2,28.1-64.8,44.8-104.1,47.8L175,349.8l-12.6-10.5
			c-39.3-3-75.9-19.7-104.1-47.8c-20.8-20.9-35.4-46.4-42.8-74.2l-11-9.1l162.2,360.3c-1.3,1.7-2,3.8-2,6.1
			c0,5.7,4.6,10.3,10.3,10.3s10.3-4.6,10.3-10.3c0-2.3-0.8-4.4-2-6.1L345.5,208.2z"/>
	</g>
</g>
</svg>
