<?xml version="1.0" encoding="utf-8"?>
<!-- Generator: Adobe Illustrator 25.4.1, SVG Export Plug-In . SVG Version: 6.00 Build 0)  -->
<svg version="1.1" id="Capa_1" xmlns="http://www.w3.org/2000/svg" xmlns:xlink="http://www.w3.org/1999/xlink" x="0px" y="0px"
	 viewBox="0 0 290 290" style="enable-background:new 0 0 290 290;" xml:space="preserve">
<style type="text/css">
	.st0{fill:#00ABD9;}
</style>
<path class="st0" d="M26.4,52.8v184.5c0,14.6,11.8,26.4,26.4,26.4h184.5c14.6,0,26.4-11.8,26.4-26.4V52.8
	c0-14.6-11.8-26.4-26.4-26.4H52.8C38.2,26.4,26.4,38.2,26.4,52.8z M77.7,92.3h35.6c30.7,0,34.3,28.2,34.3,34.3
	c0,24.5-17.2,33.1-33.1,33.1H99.8v36.8H77.7V92.3z M99.7,109.5v33.1h14.7c9.8,0,12.3-7.4,12.3-15.9c0-8.6-3.7-17.2-12.3-17.2
	L99.7,109.5L99.7,109.5z M186.8,118c18.4,0,28.2,11,28.2,24.5h-20.8c0-6.1-2.5-9.8-7.4-9.8c-3.7,0-7.4,2.5-7.4,7.4
	c0,12.3,35.6,8.6,35.6,35.5c0,18.4-18.4,22.1-28.2,22.1c-19.6,0-29.4-13.5-29.4-25.7H177c0,9.8,7.4,11,9.8,11c4.9,0,8.6-2.5,8.6-7.4
	c0-11-35.6-9.8-35.6-34.3C159.8,122.9,177,118,186.8,118z"/>
</svg>
