<?xml version="1.0" encoding="utf-8"?>
<!-- Generator: Adobe Illustrator 25.4.1, SVG Export Plug-In . SVG Version: 6.00 Build 0)  -->
<svg version="1.1" id="Capa_1" xmlns="http://www.w3.org/2000/svg" xmlns:xlink="http://www.w3.org/1999/xlink" x="0px" y="0px"
	 viewBox="0 0 350 585" style="enable-background:new 0 0 350 585;" xml:space="preserve">
<style type="text/css">
	.st0{fill:#FF6633;}
	.st1{opacity:0.5;fill:#FF6633;}
</style>
<g>
	<g>
		<g>
			<g>
				<path class="st0" d="M175,0C78.4,0,0,78.4,0,174.9s78.4,174.9,175,174.9s175-78.4,175-174.9S271.6,0,175,0z M291.7,291.6
					c-31.2,31.1-72.6,48.3-116.7,48.3s-85.5-17.2-116.7-48.3C27.2,260.4,10,219,10,174.9S27.2,89.5,58.3,58.3
					C89.5,27.2,130.9,10,175,10s85.5,17.2,116.7,48.3S340,130.8,340,174.9S322.8,260.4,291.7,291.6z"/>
			</g>
		</g>
		<path class="st1" d="M345.5,208.2l-11,9.1c-7.4,27.8-22,53.3-42.8,74.2c-28.2,28.1-64.8,44.8-104.1,47.8L175,349.8l-12.6-10.5
			c-39.3-3-75.9-19.7-104.1-47.8c-20.8-20.9-35.4-46.4-42.8-74.2l-11-9.1l162.2,360.3c-1.3,1.7-2,3.8-2,6.1
			c0,5.7,4.6,10.3,10.3,10.3s10.3-4.6,10.3-10.3c0-2.3-0.8-4.4-2-6.1L345.5,208.2z"/>
	</g>
</g>
<g>
	<g>
		<path class="st0" d="M175.6,306.4c-4.9,0-9.8-1.9-13.5-5.6c-2.9-2.9-4.8-6.7-5.4-10.8l-4.2-28c-11.7,6.6-22.2,12.4-30.1,16.8
			c-7.4,4-16.7,2.7-22.6-3.3L88.3,264l-11.5-11.6c-5.9-5.9-7.3-15.2-3.2-22.5c3.8-6.9,9.9-17.9,17.2-30.9l-28.4-3.3h-0.1
			c-4.1-0.6-8-2.5-11-5.5c-7.4-7.5-7.3-19.6,0.2-26.9l27.6-27.6c1-1,2.3-1.6,3.7-1.7l49.5-4.2c11.3-17.4,21.9-32.3,29.8-40.2
			c22-22,68.2-17.9,93.8-13.5c10.4,1.8,18.7,10,20.4,20.4c4.4,25.6,8.5,71.8-13.5,93.8c-7.9,7.9-22.7,18.5-40.1,29.8l-4.2,49.5
			c-0.1,1.4-0.7,2.7-1.7,3.7L189.1,301C185.3,304.5,180.4,306.4,175.6,306.4z M163.7,255.6l4.9,32.7c0.2,1.6,0.9,3,2,4
			c2.7,2.7,7.2,2.7,10,0l26.1-26.1L210,228C194.8,237.4,178.6,247,163.7,255.6z M105.3,197.6c-7.3,12.7-14.5,25.6-21.3,38
			c-1.5,2.7-1,6.1,1.2,8.3l11.5,11.6l11.5,11.5c2.2,2.2,5.6,2.7,8.3,1.2c7.9-4.4,21.4-11.8,36.9-20.7c0.4-0.3,0.7-0.5,1.1-0.7
			c18.5-10.6,39.9-23.2,58.5-35.1c0.3-0.2,0.6-0.5,1-0.6c17.6-11.3,32.5-21.8,40.1-29.4c18.9-18.9,13.4-64.6,10.2-83.3l0,0
			c-0.9-5.4-5.2-9.7-10.6-10.6c-18.8-3.2-64.4-8.7-83.3,10.2c-13.9,14-39.8,55.3-64.6,98.5C105.8,196.8,105.6,197.2,105.3,197.6z
			 M63.8,183.7l33.4,3.9c8.3-14.4,17.7-30.4,27-45.3L86,145.6l-26.1,26.1c-2.8,2.8-2.8,7.2-0.1,10C60.9,182.8,62.3,183.5,63.8,183.7
			z M203.2,181.1c-17.7,0-32.1-14.4-32.1-32.1s14.4-32.1,32.1-32.1s32.1,14.4,32.1,32.1S220.9,181.1,203.2,181.1z M203.2,128.9
			c-11.1,0-20.1,9-20.1,20.1s9,20.1,20.1,20.1s20.1-9,20.1-20.1S214.3,128.9,203.2,128.9z"/>
	</g>
</g>
</svg>
