<?xml version="1.0" encoding="utf-8"?>
<!-- Generator: Adobe Illustrator 25.4.1, SVG Export Plug-In . SVG Version: 6.00 Build 0)  -->
<svg version="1.1" id="Capa_1" xmlns="http://www.w3.org/2000/svg" xmlns:xlink="http://www.w3.org/1999/xlink" x="0px" y="0px"
	 viewBox="0 0 350 585" style="enable-background:new 0 0 350 585;" xml:space="preserve">
<style type="text/css">
	.st0{fill:#FF6633;}
	.st1{opacity:0.5;fill:#FF6633;}
</style>
<g>
	<g>
		<g>
			<path class="st0" d="M175,0C78.4,0,0,78.4,0,174.9s78.4,174.9,175,174.9s175-78.4,175-174.9S271.6,0,175,0z M291.7,291.6
				c-31.2,31.1-72.6,48.3-116.7,48.3s-85.5-17.2-116.7-48.3C27.2,260.4,10,219,10,174.9S27.2,89.5,58.3,58.3
				C89.5,27.2,130.9,10,175,10s85.5,17.2,116.7,48.3S340,130.8,340,174.9S322.8,260.4,291.7,291.6z"/>
		</g>
	</g>
	<g>
		<g>
			<g>
				<path class="st0" d="M254.6,260.5c-1.5,0-3.1-0.6-4.2-1.8c-2.3-2.3-2.3-6.1,0-8.5c20.1-20.1,31.2-46.9,31.2-75.4
					s-11.1-55.2-31.2-75.4c-2.3-2.3-2.3-6.1,0-8.5c2.3-2.3,6.1-2.3,8.5,0c22.4,22.4,34.7,52.2,34.7,83.9s-12.3,61.5-34.7,83.9
					C257.7,259.9,256.2,260.5,254.6,260.5z M95.4,260.5c-1.5,0-3.1-0.6-4.2-1.8c-22.4-22.4-34.7-52.2-34.7-83.9S68.8,113.3,91.2,91
					c2.3-2.3,6.1-2.3,8.5,0c2.3,2.3,2.3,6.1,0,8.5c-20.1,20.1-31.2,46.9-31.2,75.4s11.1,55.2,31.2,75.4c2.3,2.3,2.3,6.1,0,8.5
					C98.4,259.9,96.9,260.5,95.4,260.5z M230.1,236c-1.5,0-3.1-0.6-4.2-1.8c-2.3-2.3-2.3-6.1,0-8.5c13.6-13.6,21.1-31.7,21.1-50.9
					s-7.5-37.3-21.1-50.9c-2.3-2.3-2.3-6.1,0-8.5c2.3-2.3,6.1-2.3,8.5,0c15.9,15.9,24.6,36.9,24.6,59.4c0,22.4-8.7,43.5-24.6,59.4
					C233.2,235.4,231.7,236,230.1,236z M119.9,236c-1.5,0-3.1-0.6-4.2-1.8C99.8,218.4,91,197.3,91,174.9s8.7-43.5,24.6-59.4
					c2.3-2.3,6.1-2.3,8.5,0c2.3,2.3,2.3,6.1,0,8.5c-13.6,13.6-21.1,31.7-21.1,50.9s7.5,37.3,21.1,50.9c2.3,2.3,2.3,6.1,0,8.5
					C122.9,235.4,121.4,236,119.9,236z M205.6,211.5c-1.1,0-2.3-0.3-3.3-1c-2.8-1.8-3.5-5.6-1.7-8.3c0.2-0.3,0.5-0.7,0.8-0.9
					c14.5-14.6,14.5-38.2,0-52.7c-2.3-2.3-2.3-6.1,0-8.5c2.3-2.3,6.1-2.3,8.5,0c19.2,19.2,19.2,50.4,0.1,69.7
					C208.8,210.9,207.2,211.5,205.6,211.5z M205.6,205.5L205.6,205.5L205.6,205.5z M175,185.2c-5.7,0-10.3-4.6-10.3-10.3
					c0-5.7,4.6-10.3,10.3-10.3s10.3,4.6,10.3,10.3C185.3,180.6,180.7,185.2,175,185.2z"/>
			</g>
		</g>
		<path class="st0" d="M140.1,209.7c-19.2-19.2-19.1-50.5,0.1-69.7c2.3-2.3,6.1-2.3,8.5,0c2.3,2.3,2.3,6.1,0,8.5
			c-14.5,14.5-14.6,38.2,0,52.7c0.3,0.3,0.6,0.6,0.8,0.9c1.8,2.8,1.1,6.5-1.7,8.3c-1,0.7-2.2,1-3.3,1
			C142.9,211.5,141.3,210.9,140.1,209.7z"/>
	</g>
	<path class="st1" d="M345.5,208.2l-11,9.1c-7.4,27.8-22,53.3-42.8,74.2c-28.2,28.1-64.8,44.8-104.1,47.8L175,349.8l-12.6-10.5
		c-39.3-3-75.9-19.7-104.1-47.8c-20.8-20.9-35.4-46.4-42.8-74.2l-11-9.1l162.2,360.3c-1.3,1.7-2,3.8-2,6.1c0,5.7,4.6,10.3,10.3,10.3
		s10.3-4.6,10.3-10.3c0-2.3-0.8-4.4-2-6.1L345.5,208.2z"/>
</g>
</svg>
