<?xml version="1.0" encoding="utf-8"?>
<!-- Generator: Adobe Illustrator 25.4.1, SVG Export Plug-In . SVG Version: 6.00 Build 0)  -->
<svg version="1.1" id="Capa_1" xmlns="http://www.w3.org/2000/svg" xmlns:xlink="http://www.w3.org/1999/xlink" x="0px" y="0px"
	 viewBox="0 0 230 230" style="enable-background:new 0 0 230 230;" xml:space="preserve">
<style type="text/css">
	.st0{fill:#FFFFFF;}
</style>
<g>
	<path class="st0" d="M227.5,115c0,62.1-50.4,112.5-112.5,112.5C52.9,227.5,2.5,177.1,2.5,115S52.9,2.5,115,2.5
		C177.1,2.5,227.5,52.9,227.5,115z M197.5,93.1c0-5.4-2.3-8.2-5.9-10.3c-25.4-14.8-60.1-21.7-93.2-21.7c-19.5,0-37.3,2.2-53.3,6.9
		c-4.1,1.2-7.9,4.7-7.9,10.8c0,6,4.6,10.7,10.6,10.7c2.2,0,4.2-0.7,5.9-1.2C91,78,148.8,82.7,181.1,101.9c2,1.2,3.5,1.8,5.9,1.8
		C192.5,103.7,197.5,99.3,197.5,93.1z M181.7,129.4c0-3.9-1.5-6.8-5.1-8.9c-22.4-13.3-50.9-20.6-80.3-20.6
		c-18.9,0-31.8,2.6-44.4,6.2c-4.7,1.3-7,4.5-7,9.4c0,4.9,3.9,8.8,8.8,8.8c2,0,3.2-0.6,5.4-1.2c37.6-10.2,79.9-3.4,108.2,13.3
		c1.6,0.9,3.2,1.9,5.6,1.9C177.8,138.3,181.6,134.3,181.7,129.4z M167.6,161c0-4.1-1.6-5.7-4.4-7.5c-32.4-19.4-70.4-20.1-107.5-11.9
		c-3.4,0.7-6.2,2.9-6.2,7.6c0,3.7,2.8,7.2,7.2,7.2c1.3,0,3.6-0.7,5.4-1.2c32.5-6.7,65.5-5.9,93.8,11.1c1.8,1,2.9,1.6,4.9,1.6
		C164.4,168,167.6,165.2,167.6,161z"/>
</g>
</svg>
