<?xml version="1.0" encoding="utf-8"?>
<!-- Generator: Adobe Illustrator 25.4.1, SVG Export Plug-In . SVG Version: 6.00 Build 0)  -->
<svg version="1.1" id="Capa_1" xmlns="http://www.w3.org/2000/svg" xmlns:xlink="http://www.w3.org/1999/xlink" x="0px" y="0px"
	 viewBox="0 0 290 290" style="enable-background:new 0 0 290 290;" xml:space="preserve">
<style type="text/css">
	.st0{fill:#00ABD9;}
</style>
<path class="st0" d="M142.4,70.5c-28.8-0.4-53.3,20.9-56.9,49.5c6.8-11.7,19-19.2,32.5-20c20,0,35.3,23.4,44.6,30.7
	c18,14.2,42.1,18.4,63.8,11.1c23.7-7.6,34.8-34,37.2-46.5c-11.5,16.4-28.9,26.2-50.5,14.6C198.2,101.9,187.1,69.1,142.4,70.5z
	 M83.3,144.7c-28.8-0.4-53.3,20.9-56.9,49.5c6.9-11.7,19.1-19.2,32.6-20c20,0,35.3,23.4,44.6,30.7c18,14.2,42.1,18.4,63.8,11.1
	c23.7-7.6,34.8-34,37.2-46.5c-11.5,16.4-28.9,26.2-50.5,14.6C139.2,176.1,128.1,143.2,83.3,144.7z"/>
</svg>
