<?xml version="1.0" encoding="utf-8"?>
<!-- Generator: Adobe Illustrator 25.4.1, SVG Export Plug-In . SVG Version: 6.00 Build 0)  -->
<svg version="1.1" id="Capa_1" xmlns="http://www.w3.org/2000/svg" xmlns:xlink="http://www.w3.org/1999/xlink" x="0px" y="0px"
	 viewBox="0 0 400 400" style="enable-background:new 0 0 400 400;" xml:space="preserve">
<style type="text/css">
	.st0{fill:#5D2784;}
	.st1{fill-rule:evenodd;clip-rule:evenodd;fill:#6E11B0;}
	.st2{fill:#6E11B0;}
	.st3{fill:#FFFFFF;}
</style>
<g>
	<g>
		<g>
			<g>
				<path class="st3" d="M199.7,375c-42.8,0-84-15.7-116-44.2c0,0-0.1-0.1-0.1-0.1c-5-4.5-9.9-9.3-14.4-14.4
					C5,244.2,11.5,133.3,83.6,69.2c72.1-64.1,183-57.7,247.2,14.5c64,72,57.7,182.6-14.1,246.8c-0.2,0.2-0.5,0.4-0.7,0.6
					c-32,28.3-73,43.9-115.8,43.9C200.1,375,199.9,375,199.7,375z M199.9,48.4C164,48.4,128,61,99.2,86.6
					c-62.5,55.6-68.1,151.6-12.5,214.1c1.8,2,3.6,4,5.5,5.9c27-30.8,66.5-48.9,107.7-48.9c0.1,0,0.2,0,0.3,0
					c41.2,0,80.7,18.1,107.7,48.9c55.8-56.3,59-147.4,5.5-207.5C283.4,65.5,241.8,48.4,199.9,48.4z M200,242
					c-34.6,0-62.8-28.2-62.8-62.8s28.2-62.8,62.8-62.8s62.8,28.2,62.8,62.8S234.6,242,200,242z"/>
			</g>
		</g>
		<path class="st3" d="M227.5,67.1c-0.4,0-0.8,0.1-1.1,0.4l-7.9,6.3l-7.9-6.3c-0.4-0.3-0.8-0.4-1.3-0.4c-0.1,0-0.1,0-0.1,0
			c-0.4,0-0.8,0.1-1.1,0.4l-7.8,6.2l-7.9-6.3c-0.1-0.1-0.2-0.1-0.3-0.2c-0.1-0.1-0.2-0.1-0.2-0.1h-0.1c-0.2-0.1-0.4-0.1-0.7-0.1
			c-0.1,0-0.1,0-0.1,0c-0.4,0-0.8,0.1-1.1,0.4l-7.9,6.3l-7.9-6.3c-0.8-0.6-1.9-0.5-2.5,0.3c-0.2,0.3-0.4,0.7-0.4,1.1v27.9
			c0,0.8,0.3,1.7,0.9,2.4s1.5,1,2.4,1l22.4,2.6c2.4,0.3,4.7,0.3,7,0l22.4-2.6c0.9,0,1.8-0.4,2.4-1c0.6-0.7,0.9-1.5,0.9-2.4V68.9
			C229.3,67.8,228.5,67.1,227.5,67.1z"/>
	</g>
</g>
</svg>
